<svg width="48" height="48" viewBox="0 0 48 48" fill="none" xmlns="http://www.w3.org/2000/svg">
<path d="M8.8 43.0001C9.9201 43.0001 10.4802 43.0001 10.908 42.781C11.2843 42.5883 11.5903 42.2808 11.782 41.9026C12 41.4726 12 40.9098 12 39.784V28.1258C12 27 12 26.4372 11.782 26.0072C11.5903 25.629 11.2843 25.3215 10.908 25.1288C10.4802 24.9097 9.92011 24.9097 8.8 24.9097H7.2C6.0799 24.9097 5.51984 24.9097 5.09202 25.1288C4.7157 25.3215 4.40973 25.629 4.21799 26.0072C4 26.4372 4 27 4 28.1258V39.784C4 40.9098 4 41.4726 4.21799 41.9026C4.40973 42.2808 4.71569 42.5883 5.09202 42.781C5.51984 43.0001 6.07989 43.0001 7.2 43.0001H8.8Z" fill="#F5F5F5"/>
<path d="M26.571 33.0501H31.4273C32.3286 33.0501 33.205 32.7652 33.9252 32.2361L38.9543 28.5486C40.2095 27.6288 41.9663 27.7509 43.0758 28.8355C44.3081 30.0403 44.3081 31.9919 43.0758 33.1946L38.7607 37.4133C37.5992 38.5489 36.1171 39.3242 34.506 39.6396L28.4069 40.8322C27.1976 41.0682 25.9507 41.0397 24.7538 40.7467L19.2376 39.3995C18.5778 39.2367 17.9013 39.1553 17.2206 39.1553H12" fill="#F5F5F5"/>
<path d="M26.571 33.05L29.6621 33.0499C31.4044 33.0499 32.8157 31.6701 32.8157 29.9668V29.3502C32.8157 27.9358 31.8311 26.7026 30.4282 26.3607L25.6572 25.1946C24.8808 25.0054 24.0856 24.9097 23.2863 24.9097C21.3567 24.9097 17.8638 26.5154 17.8638 26.5154L12 28.9798" fill="#F5F5F5"/>
<path fill-rule="evenodd" clip-rule="evenodd" d="M32.3 7.14654C30.3006 4.79739 26.9665 4.16547 24.4615 6.31659C21.9564 8.46771 21.6038 12.0643 23.571 14.6084C25.2066 16.7237 30.1566 21.185 31.7789 22.6289C31.9604 22.7904 32.0512 22.8712 32.157 22.903C32.2494 22.9307 32.3505 22.9307 32.4429 22.903C32.5487 22.8712 32.6395 22.7904 32.821 22.6289C34.4433 21.185 39.3933 16.7237 41.0289 14.6084C42.9961 12.0643 42.6865 8.44508 40.1384 6.31659C37.5903 4.1881 34.2993 4.79739 32.3 7.14654Z" fill="#F5F5F5"/>
<path d="M12 28.9798V39.1552H17.2206C17.9013 39.1552 18.5778 39.2366 19.2376 39.3994L24.7538 40.7466C25.9507 41.0396 27.1976 41.0681 28.4069 40.8321L34.506 39.6395C36.1171 39.3241 37.5992 38.5488 38.7607 37.4132L43.0758 33.1945C44.3081 31.9918 44.3081 30.0402 43.0758 28.8354C41.9663 27.7508 40.2095 27.6287 38.9543 28.5485L33.9252 32.236C33.205 32.7651 32.3286 33.05 31.4273 33.05H26.571L29.6621 33.0499C31.4044 33.0499 32.8157 31.6701 32.8157 29.9668V29.3502C32.8157 27.9358 31.8311 26.7026 30.4282 26.3607L25.6572 25.1946C24.8808 25.0054 24.0856 24.9097 23.2863 24.9097C21.3567 24.9097 17.8638 26.5154 17.8638 26.5154L12 28.9798Z" fill="#F5F5F5"/>
<path d="M8.8 43.0001C9.9201 43.0001 10.4802 43.0001 10.908 42.781C11.2843 42.5883 11.5903 42.2808 11.782 41.9026C12 41.4726 12 40.9098 12 39.784V28.1258C12 27 12 26.4372 11.782 26.0072C11.5903 25.629 11.2843 25.3215 10.908 25.1288C10.4802 24.9097 9.92011 24.9097 8.8 24.9097H7.2C6.0799 24.9097 5.51984 24.9097 5.09202 25.1288C4.7157 25.3215 4.40973 25.629 4.21799 26.0072C4 26.4372 4 27 4 28.1258V39.784C4 40.9098 4 41.4726 4.21799 41.9026C4.40973 42.2808 4.71569 42.5883 5.09202 42.781C5.51984 43.0001 6.07989 43.0001 7.2 43.0001H8.8Z" stroke="#262626" stroke-width="0.2" stroke-linecap="round" stroke-linejoin="round"/>
<path d="M26.571 33.0501H31.4273C32.3286 33.0501 33.205 32.7652 33.9252 32.2361L38.9543 28.5486C40.2095 27.6288 41.9663 27.7509 43.0758 28.8355C44.3081 30.0403 44.3081 31.9919 43.0758 33.1946L38.7607 37.4133C37.5992 38.5489 36.1171 39.3242 34.506 39.6396L28.4069 40.8322C27.1976 41.0682 25.9507 41.0397 24.7538 40.7467L19.2376 39.3995C18.5778 39.2367 17.9013 39.1553 17.2206 39.1553H12" stroke="#262626" stroke-width="0.2" stroke-linecap="round" stroke-linejoin="round"/>
<path d="M26.571 33.05L29.6621 33.0499C31.4044 33.0499 32.8157 31.6701 32.8157 29.9668V29.3502C32.8157 27.9358 31.8311 26.7026 30.4282 26.3607L25.6572 25.1946C24.8808 25.0054 24.0856 24.9097 23.2863 24.9097C21.3567 24.9097 17.8638 26.5154 17.8638 26.5154L12 28.9798" stroke="#262626" stroke-width="0.2" stroke-linecap="round" stroke-linejoin="round"/>
<path fill-rule="evenodd" clip-rule="evenodd" d="M32.3 7.14654C30.3006 4.79739 26.9665 4.16547 24.4615 6.31659C21.9564 8.46771 21.6038 12.0643 23.571 14.6084C25.2066 16.7237 30.1566 21.185 31.7789 22.6289C31.9604 22.7904 32.0512 22.8712 32.157 22.903C32.2494 22.9307 32.3505 22.9307 32.4429 22.903C32.5487 22.8712 32.6395 22.7904 32.821 22.6289C34.4433 21.185 39.3933 16.7237 41.0289 14.6084C42.9961 12.0643 42.6865 8.44508 40.1384 6.31659C37.5903 4.1881 34.2993 4.79739 32.3 7.14654Z" stroke="#262626" stroke-width="0.2" stroke-linecap="round" stroke-linejoin="round"/>
<path d="M12 28.9798V39.1552H17.2206C17.9013 39.1552 18.5778 39.2366 19.2376 39.3994L24.7538 40.7466C25.9507 41.0396 27.1976 41.0681 28.4069 40.8321L34.506 39.6395C36.1171 39.3241 37.5992 38.5488 38.7607 37.4132L43.0758 33.1945C44.3081 31.9918 44.3081 30.0402 43.0758 28.8354C41.9663 27.7508 40.2095 27.6287 38.9543 28.5485L33.9252 32.236C33.205 32.7651 32.3286 33.05 31.4273 33.05H26.571L29.6621 33.0499C31.4044 33.0499 32.8157 31.6701 32.8157 29.9668V29.3502C32.8157 27.9358 31.8311 26.7026 30.4282 26.3607L25.6572 25.1946C24.8808 25.0054 24.0856 24.9097 23.2863 24.9097C21.3567 24.9097 17.8638 26.5154 17.8638 26.5154L12 28.9798Z" stroke="#262626" stroke-width="0.2" stroke-linecap="round" stroke-linejoin="round"/>
</svg>
