<svg width="48" height="48" viewBox="0 0 48 48" fill="none" xmlns="http://www.w3.org/2000/svg">
<rect x="1" y="1" width="46" height="46" rx="23" stroke="white" stroke-width="2"/>
<path d="M12 20.7C12 18.7048 12 17.7072 12.3924 16.9452C12.7375 16.2748 13.2883 15.7298 13.9656 15.3883C14.7357 15 15.7438 15 17.76 15H30.24C32.2562 15 33.2643 15 34.0344 15.3883C34.7118 15.7298 35.2625 16.2748 35.6076 16.9452C36 17.7072 36 18.7048 36 20.7V28.3C36 30.2952 36 31.2928 35.6076 32.0548C35.2625 32.7252 34.7118 33.2702 34.0344 33.6117C33.2643 34 32.2562 34 30.24 34H17.76C15.7438 34 14.7357 34 13.9656 33.6117C13.2883 33.2702 12.7375 32.7252 12.3924 32.0548C12 31.2928 12 30.2952 12 28.3V20.7Z" fill="white"/>
<path d="M35.4 31.625L27.4286 24.5M20.5714 24.5L12.6 31.625M12 18.5625L21.7979 25.3496C22.5913 25.8992 22.988 26.174 23.4195 26.2804C23.8007 26.3744 24.1993 26.3744 24.5805 26.2804C25.012 26.174 25.4087 25.8992 26.2021 25.3496L36 18.5625M17.76 34H30.24C32.2562 34 33.2643 34 34.0344 33.6117C34.7117 33.2702 35.2625 32.7252 35.6076 32.0548C36 31.2928 36 30.2952 36 28.3V20.7C36 18.7048 36 17.7072 35.6076 16.9452C35.2625 16.2748 34.7117 15.7298 34.0344 15.3883C33.2643 15 32.2562 15 30.24 15H17.76C15.7438 15 14.7357 15 13.9656 15.3883C13.2883 15.7298 12.7375 16.2748 12.3924 16.9452C12 17.7072 12 18.7048 12 20.7V28.3C12 30.2952 12 31.2928 12.3924 32.0548C12.7375 32.7252 13.2883 33.2702 13.9656 33.6117C14.7357 34 15.7438 34 17.76 34Z" stroke="black" stroke-width="2" stroke-linecap="round" stroke-linejoin="round"/>
</svg>
