<svg width="48" height="48" viewBox="0 0 48 48" fill="none" xmlns="http://www.w3.org/2000/svg">
<rect width="48" height="48" rx="8" fill="#F5F5F5"/>
<path d="M4 4H44V44H4V4Z" fill="#F5F5F5"/>
<path d="M27.9606 4.63675C28.2795 4.59232 28.9224 4.68233 29.2318 4.76588C30.638 5.14542 31.5092 5.77383 32.2649 6.99186C32.7805 6.97084 33.2922 6.96204 33.8012 7.05448C35.2259 7.31951 36.488 8.13363 37.313 9.31987C38.1156 10.4868 38.4715 11.9081 38.2073 13.3045C40.2908 14.1895 41.3434 16.1186 41.0897 18.3202C41.0488 18.6755 40.9993 18.9114 40.8806 19.2478C41.5314 19.8451 42.0249 20.3672 42.3746 21.2064C42.8506 22.3496 42.872 23.8219 42.3911 24.9683C42.6919 26.1721 42.8631 27.144 42.588 28.3982C42.3353 29.5491 41.6538 30.6834 40.7701 31.4654C40.4831 31.7192 40.0721 31.9757 39.7438 32.1803C39.7468 32.443 39.8035 32.6762 39.8276 32.933C40.1344 36.1928 37.9503 39.3951 34.6209 39.9277C34.296 39.9796 33.916 39.9819 33.5891 40.0003C31.9958 44.0982 26.2182 44.6726 24.738 40.154C24.4781 39.3603 24.5133 38.2654 24.5136 37.4342L24.5147 35.0358L23.4564 35.0378L23.4605 41.666C22.9318 41.6644 22.4032 41.6657 21.8746 41.67L21.8785 43.3103L18.1187 43.3117C18.1567 42.8259 18.1418 42.1652 18.1445 41.667H15.0215L15.0163 39.9908L13.1425 39.9888L11.8475 39.9878L11.8497 38.3182L10.2649 38.3199C10.2533 37.7731 10.2517 37.2256 10.2602 36.6788L8.68461 36.6752L8.68342 35.0358L7.09887 35.0345L7.10507 30.0772C6.57606 30.0705 6.047 30.0692 5.51795 30.0733C5.48942 28.2573 5.50605 26.3479 5.51561 24.5289L7.10801 24.525L7.10178 23.5404C6.58645 23.5257 6.0345 23.5365 5.51654 23.5376C5.50842 22.2253 5.50875 20.9129 5.51749 19.6006L7.10722 19.599C7.08314 18.5307 7.10036 17.3912 7.09891 16.3164L8.68184 16.3166L8.68332 13.032L10.2641 13.0282C10.2522 11.9348 10.2559 10.8103 10.2632 9.71662C10.7912 9.71491 11.3191 9.71757 11.847 9.72457L11.8439 8.0376C12.3728 8.03386 12.9017 8.03356 13.4305 8.03672L13.432 6.3998L15.6025 6.39902C15.61 6.93915 15.6044 7.49485 15.6047 8.03622L16.5611 8.0333C16.5214 7.63458 16.5554 6.82099 16.5679 6.39875C17.0807 6.38348 17.609 6.39146 18.1233 6.3931C18.1151 5.84562 18.1152 5.29806 18.1237 4.75061L21.8739 4.75514L21.8786 6.41869C22.2499 6.37698 23.0431 6.39163 23.4557 6.37744L23.4592 11.9783L21.8736 11.9819L21.8774 13.6209C20.9289 13.6732 19.6915 13.6268 18.7083 13.6294L18.7115 14.6745L20.3022 14.674C20.2944 15.2199 20.2921 15.7658 20.2953 16.3117L21.2788 16.3143L21.2748 14.673L22.8662 14.6719L22.87 13.0287C23.4178 13.025 23.9657 13.024 24.5135 13.0259L24.5151 9.98411C24.5137 9.12808 24.4705 8.05672 24.6587 7.23806C24.7644 6.75626 24.9792 6.30483 25.2866 5.91816C25.9546 5.08174 26.9315 4.75064 27.9606 4.63675Z" fill="black"/>
<path d="M27.7494 5.29236C29.8755 5.02734 31.8335 6.57055 32.1891 8.62284C32.2409 8.9211 32.1739 9.72599 32.324 9.88904C32.4503 9.95 32.7644 9.96481 32.7937 9.82661C32.928 9.19059 32.7007 8.16842 32.5361 7.57745C32.8904 7.57867 33.4548 7.6251 33.7932 7.69499C35.0629 7.95732 36.1729 8.71722 36.8736 9.80349C37.4693 10.7222 37.8698 12.0495 37.6316 13.1414C37.091 12.9946 36.8449 13.0244 36.2894 13.0336C36.0532 12.2286 35.72 11.6102 34.9979 11.1411C34.8139 11.01 34.4639 10.8883 34.323 11.1437C34.1676 11.4111 34.4395 11.5867 34.6476 11.7036C35.1464 11.9713 35.4014 12.3675 35.5914 12.8874C36.0017 14.0118 35.4301 15.7386 34.0944 15.8952C33.8892 15.9193 33.6554 15.9153 33.4584 15.9794C33.3525 16.0139 33.3215 16.0722 33.2833 16.1655C33.4004 17.0065 35.0293 16.3098 35.4192 15.8978C36.4128 16.3815 37.0445 16.94 37.4443 17.9968C37.7639 18.8289 37.7356 19.7539 37.3651 20.5651C36.9554 21.4763 36.1957 22.186 35.2566 22.5354C34.1023 22.9562 33.026 22.767 31.9407 22.2659C31.8839 21.8338 31.8262 20.6829 31.3898 20.4952C31.1803 20.4759 30.9883 20.6172 31.0421 20.8165C31.3139 21.8242 31.4693 22.3234 31.1289 23.3737C30.7637 24.5004 29.6553 25.7168 28.3408 25.2724C27.636 25.0342 27.3571 24.4539 27.122 23.8003C26.9543 23.3146 26.4891 23.4912 26.5242 23.8014C26.7558 25.8465 29.0751 26.6536 30.5865 25.2888C31.1945 24.7398 31.813 23.7912 31.849 22.9522L31.8506 22.9038C32.9075 23.3019 33.9786 23.5335 35.1368 23.2146C37.919 22.4486 39.1355 19.2407 37.5521 16.851C37.1035 16.1739 36.548 15.7931 35.8249 15.3935C36.2119 14.892 36.3187 14.247 36.3646 13.6363C36.5411 13.6518 36.7304 13.6645 36.9046 13.674C39.9282 13.8392 41.5195 17.457 39.8735 19.8889C39.6749 20.1822 39.2708 20.7303 39.1919 21.0378C38.9884 21.8335 39.2256 22.7046 38.5718 23.3758C38.3854 23.5673 38.3696 23.838 38.617 23.9937C38.9162 24.0296 39.0501 23.7335 39.2022 23.5384C39.8144 22.7539 39.631 21.9647 39.8039 21.1162C39.8299 20.9889 40.4831 20.0577 40.6002 19.8308C42.0417 21.0687 42.4349 22.7241 41.8969 24.5108C41.5119 24.2508 41.1177 24.1124 40.6503 24.1835C39.8494 24.3054 39.3242 24.8838 39.1844 25.6638C39.123 26.05 39.1062 26.4329 39.03 26.8177C38.833 27.8092 38.0984 28.6975 37.1669 29.0945C36.7581 29.2686 36.2534 29.3256 35.8088 29.3912C35.694 29.176 34.5988 27.1504 34.2795 28.2703C34.2346 28.4271 34.7321 28.7932 34.8782 28.9866C35.6353 29.9885 35.3615 31.7334 34.2448 32.3771C33.9918 32.5243 33.4386 32.7098 33.4287 33.0244C33.6148 33.4507 34.199 33.1292 34.4659 32.9699C35.4997 32.3535 36.0459 31.1827 35.8975 29.9791C37.9127 29.8406 39.2883 28.7083 39.6934 26.6895C39.757 26.371 39.7089 25.9514 39.7821 25.6603C39.8609 25.3609 40.0526 25.1033 40.3175 24.9413C40.5751 24.7837 40.8872 24.7392 41.1788 24.8186C41.4526 24.8954 41.6825 25.0811 41.8141 25.3319C41.9484 25.5908 41.9616 25.8242 42.0183 26.1014C42.5596 28.7453 40.8238 31.6766 38.0585 32.0901C37.7616 32.1344 36.9175 32.1203 36.74 32.207C36.6183 32.3459 36.5935 32.5216 36.6503 32.6845C36.9712 33.607 36.712 34.6034 35.9895 35.2579C35.7952 35.4339 35.1454 35.7479 35.2632 36.0418C35.4914 36.611 36.4411 35.7334 36.6245 35.4904C37.341 34.6573 37.435 33.7781 37.345 32.7528C38.0483 32.7407 38.4834 32.6753 39.1553 32.4553C39.2319 32.7837 39.2698 33.12 39.2678 33.4573C39.2751 36.4816 36.9646 39.3469 33.7939 39.3663C34.3012 37.1016 33.6583 35.319 31.8206 33.965C31.7972 33.9479 31.908 33.0323 31.905 32.9144C31.8918 32.3896 31.7909 31.9863 31.6019 31.4983C32.0258 31.2753 32.3157 31.0221 32.6311 30.6425C32.8597 30.3958 33.1107 29.7697 32.5443 29.7797C32.3725 29.7827 32.1396 30.299 32.0245 30.4333C31.5425 30.9906 30.8039 31.2586 30.0748 31.141C29.8433 31.1022 29.6085 31.0221 29.3725 31.0307C29.0848 31.0408 29.0495 31.4497 29.2769 31.566C29.8483 31.8589 30.3922 31.8658 31.0101 31.7463C31.3842 32.6891 31.4558 33.3627 30.9392 34.2868C30.5852 34.9197 29.9853 35.2947 29.2766 35.429C28.8718 35.5059 28.7545 35.8454 29.1628 36.0326C29.3776 36.1315 29.7681 35.9607 29.9868 35.8786C30.5631 35.6625 31.2592 35.0835 31.5059 34.5157C32.6252 35.3653 33.3344 36.4031 33.3694 37.8829C33.4545 41.4855 29.2607 44.4021 26.3098 41.6241C25.0547 40.4422 25.1041 38.9778 25.1071 37.3702C25.3953 37.6789 25.538 37.8172 25.921 38.0399C25.9771 38.1068 26.6945 38.3535 26.6989 38.3745C27.2513 41.0507 30.7056 40.8238 31.0563 38.1847C30.8969 37.5686 30.4602 37.7302 30.3843 38.3091C30.2395 39.4146 28.9343 40.1174 28.0006 39.384C27.4529 38.9538 27.3202 38.4829 27.2269 37.8507C24.8362 37.2802 25.0998 35.9262 25.1111 33.9305L25.1072 25.8678L25.1068 23.3848C25.1066 22.2413 24.9743 20.8891 26.1158 20.2228C27.5277 19.3986 29.0631 20.3967 29.2095 21.9267C29.2226 22.0642 29.2941 22.1946 29.4113 22.2679C29.645 22.3006 29.806 22.1069 29.7975 21.887C29.746 20.548 28.6664 19.3623 27.2963 19.3017C26.3356 19.2592 25.7905 19.6446 25.1173 20.2572C25.0948 18.8676 25.1083 17.446 25.1076 16.0546L24.5197 16.0566C24.4879 18.1232 24.5155 20.2531 24.5154 22.3248L24.5135 34.4448L20.2958 34.4408L20.2908 28.4018L21.8755 28.4L21.8756 27.8166C20.8391 27.7984 19.7617 27.813 18.7221 27.8127C18.676 26.237 18.7126 24.4798 18.7089 22.8868L18.1258 22.8856C18.1357 23.9809 18.1345 25.0762 18.1222 26.1715L16.5422 26.1656C16.5332 26.713 16.5323 27.2605 16.5392 27.808L15.0111 27.8153L15.0153 34.4448L14.025 34.4412L14.0246 32.8064C13.3039 32.7962 12.5712 32.8008 11.8495 32.7985C11.8454 33.3476 11.8452 33.8963 11.8488 34.4451L10.8591 34.4425L10.8565 32.7991L10.2631 32.8004C10.25 33.5449 10.2501 34.2894 10.2632 35.0343L11.846 35.0379L11.8488 36.0819L9.27659 36.0832L9.2759 31.7367C9.74914 31.7561 10.3753 31.739 10.8594 31.7384L10.8602 27.8096C10.1452 27.7991 9.40142 27.8116 8.68424 27.8139L8.6819 29.4534L7.69251 29.4501L7.69086 26.7586L9.27534 26.7571L9.27474 24.5277L7.69053 24.5263L7.69023 23.5369C8.18478 23.5109 8.77505 23.5314 9.2757 23.5395L9.27596 18.6131L10.2624 18.615C10.2655 19.4459 10.2463 20.2872 10.2574 21.118C10.2619 21.4457 10.31 21.5927 10.5419 21.8043C10.5852 21.8156 10.6287 21.8257 10.6725 21.8345C11.0667 21.9133 11.9408 21.9527 12.2799 21.7256C12.5939 21.2755 12.392 19.6665 12.4511 19.0595C12.5756 17.7794 11.814 17.9466 10.8594 17.958L10.8607 15.2652L12.4676 15.2632C12.4084 14.3847 12.4467 12.8887 12.4428 11.9806L14.0256 11.9786L14.0256 10.3093C15.081 10.3225 16.1365 10.3217 17.1918 10.3068L17.1914 8.65308C17.6397 8.67745 18.2728 8.6632 18.7164 8.65226C18.7137 8.09863 18.7144 7.545 18.7184 6.99138C19.2803 6.99331 19.7251 7.02537 20.2962 6.98464L20.2923 5.35811C20.6197 5.36376 20.947 5.3674 21.2744 5.36908C21.3031 6.41725 21.2817 7.59758 21.2773 8.64816C21.8009 8.67344 22.3373 8.66392 22.8624 8.66001L22.8646 9.71384C22.338 9.70491 21.8112 9.70517 21.2845 9.71463C21.2674 10.7391 21.2201 12.0233 21.2767 13.0329L18.1244 13.0307C18.1206 14.1011 18.0966 15.2519 18.1287 16.3155H13.4084C13.3693 18.0191 13.4127 19.8808 13.4081 21.599C13.6123 21.6241 13.8194 21.6272 14.0252 21.6339L14.0252 16.9647C15.2925 16.9439 16.8666 16.9172 18.1199 16.9681C18.1326 18.0376 18.1468 19.1686 18.1204 20.2339L20.294 20.2465C20.287 19.7071 20.2917 19.1545 20.291 18.614C20.6176 18.6095 20.9536 18.6138 21.2811 18.6141L21.2817 20.2306C21.5038 20.2261 21.6552 20.2349 21.8775 20.2527L21.8752 18.613L22.8638 18.614L22.8649 21.2766C21.8044 21.2924 20.7437 21.2939 19.6831 21.2811C19.2084 21.2792 18.6291 21.2634 18.1614 21.2874C18.1408 21.4773 18.1291 21.6749 18.1153 21.8662L21.2795 21.87C21.2746 22.4237 21.2748 22.9775 21.2801 23.5311L22.8659 23.5413L22.8654 26.1685L21.8792 26.1682L21.8751 24.5256L21.274 24.5287C21.2744 25.2275 21.2995 26.0754 21.26 26.7599L22.8638 26.7588L22.8653 29.4508L21.2841 29.4538C21.2824 30.1965 21.2929 30.985 21.2685 31.7236C21.6874 31.7239 22.4772 31.7548 22.863 31.7187L22.865 32.6678L23.4553 32.6684L23.4549 15.2662L25.0459 15.2621C25.0367 14.5381 25.0361 13.814 25.044 13.09C25.6097 13.0748 26.1925 13.0846 26.7596 13.0874L26.7598 10.8638L25.1208 10.8662C25.132 10.064 25.0767 8.10835 25.2288 7.44517C25.3096 7.08625 25.4632 6.74757 25.6804 6.45C26.2126 5.71716 26.8775 5.42704 27.7494 5.29236Z" fill="#F5F5F5"/>
<path d="M34.1908 24.7672C34.5012 24.7152 34.8901 24.7799 35.1949 24.8622C36.0724 25.0991 36.7836 25.6562 37.2424 26.4346C37.2949 26.5236 37.31 26.6077 37.2757 26.7082C37.247 26.7905 37.1854 26.8571 37.1052 26.8922C36.8172 27.0159 36.6744 26.6319 36.5325 26.4568C36.1987 26.0444 35.7709 25.7067 35.2695 25.5215C34.6252 25.2907 33.9147 25.3269 33.2975 25.622C32.0598 26.2002 31.6966 27.3345 31.4832 28.5687C31.439 28.8237 31.1546 28.7058 30.9874 28.6543C30.2228 28.4185 29.7037 28.3834 28.946 28.684C27.2386 29.4489 27.4594 31.0789 27.1384 31.2622C27.0817 31.2947 27.0197 31.2996 26.9576 31.2822C26.873 31.2579 26.7993 31.1709 26.7656 31.0927C26.6122 30.7367 26.8476 30.1442 26.9902 29.8092C27.3334 29.0218 27.9758 28.4017 28.7769 28.0846C29.4001 27.8371 30.3345 27.754 30.958 28.0219C31.2714 26.1924 32.3131 25.0145 34.1908 24.7672Z" fill="black"/>
<path d="M27.7939 7.12206C28.8758 7.08984 29.6165 7.86853 29.9312 8.82429C30.5453 10.6888 28.9388 11.8567 28.1502 13.2651C27.3665 14.6648 27.8057 16.7986 29.2753 17.5752C29.6655 17.7814 29.9665 17.8402 29.6839 18.3366C29.3453 18.3955 28.9535 18.1274 28.6924 17.9345C27.8818 17.3473 27.3461 16.457 27.2085 15.4685C26.9472 13.6441 27.7683 12.572 28.8217 11.249C29.317 10.6271 29.4775 9.95812 29.3698 9.15835C29.2901 8.56666 28.8419 8.06396 28.2924 7.82258C28.1213 7.76725 27.9278 7.79776 27.7808 7.67168C27.5804 7.49986 27.634 7.30597 27.7939 7.12206Z" fill="black"/>
<path d="M32.2286 12.2418C32.4852 12.2201 32.6624 12.3498 32.6522 12.6148C32.4938 12.9269 32.032 12.8876 31.6876 13.2308C31.1394 13.7769 30.9454 14.202 30.8867 14.938C30.7758 16.3255 31.5098 17.5783 32.8646 17.9998C33.6956 18.2337 34.4839 18.1719 35.1081 18.8643C35.4139 19.2035 35.8539 20.3821 35.4607 20.7184C35.4003 20.7188 35.2087 20.7235 35.1698 20.6941C34.9029 20.493 35.0279 19.9658 34.8432 19.5822C34.3454 18.5464 33.3663 18.9142 32.4104 18.5099C31.5365 18.1427 30.8491 17.4388 30.505 16.5586C30.1419 15.6492 30.1627 14.6324 30.5631 13.7385C30.9256 12.9271 31.43 12.553 32.2286 12.2418Z" fill="black"/>
<path d="M15.5698 11.3637C16.2259 11.3287 16.8249 11.2001 17.1905 11.8322L17.1929 13.621L16.5395 13.6225C16.5459 13.0808 16.5391 12.5232 16.5383 11.9802L15.6074 11.9804L15.6083 14.1313L15.6084 14.6729L17.1922 14.6754L17.1913 15.2638C16.6538 15.2619 16.0258 15.2982 15.4929 15.2532C15.2522 15.2328 15.1496 15.1167 15.0254 14.9353C14.9946 13.9224 15.026 12.8764 15.025 11.8614C15.0247 11.5491 15.3064 11.4148 15.5698 11.3637Z" fill="black"/>
<path d="M10.8711 22.8918C11.5442 22.8739 12.0559 22.7295 12.4423 23.3705L12.4495 26.3609L11.8503 26.37C11.8274 25.4282 11.8441 24.4267 11.844 23.4804C11.5216 23.5027 11.1845 23.5031 10.8605 23.5089C10.8457 24.4491 10.8583 25.4197 10.8587 26.3622L10.2643 26.3662C10.2557 25.4618 10.2196 24.2649 10.3029 23.3631C10.3103 23.2831 10.4292 23.1147 10.481 23.0401C10.6436 22.9546 10.6963 22.9413 10.8711 22.8918Z" fill="black"/>
<path d="M15.0166 23.0173C15.7409 23.0094 16.4652 23.0111 17.1894 23.0223L17.192 25.1162L15.0203 25.1169C15.0231 24.4171 15.0219 23.7172 15.0166 23.0173Z" fill="black"/>
<path d="M15.6084 23.5395L16.5541 23.5361C16.5387 23.8649 16.5426 24.1941 16.5431 24.5233L15.61 24.5243L15.6084 23.5395Z" fill="#F5F5F5"/>
<path d="M15.6212 17.9673C15.9922 17.9522 16.3636 17.9526 16.7346 17.9686C16.9998 18.1341 17.0366 18.1981 17.1898 18.4667C17.1986 19.0756 17.1895 19.7078 17.1891 20.3186L16.5543 20.3227C16.5717 19.79 16.558 19.1645 16.5585 18.626C16.2707 18.5996 15.9035 18.6112 15.609 18.6123L15.6048 20.3185L15.0201 20.3219C15.0302 19.6999 14.9909 18.9392 15.0425 18.3362C15.221 18.0462 15.2989 18.0192 15.6212 17.9673Z" fill="black"/>
<path d="M11.8503 27.8123L12.4532 27.8113C12.4228 29.0904 12.441 30.4631 12.4524 31.7449C12.2533 31.7501 12.0464 31.7485 11.8466 31.7495C11.8192 30.4884 11.8336 29.0785 11.8503 27.8123Z" fill="black"/>
<path d="M13.4142 27.8123L14.0247 27.8137L14.025 31.7449C13.8306 31.7502 13.6244 31.7469 13.429 31.7476C13.3643 30.6241 13.4057 28.9771 13.4142 27.8123Z" fill="black"/>
<path d="M18.1379 9.71388C18.8435 9.69979 19.5824 9.71224 20.2905 9.71477C20.2919 10.0256 20.3261 11.8547 20.2508 11.9786L19.6956 11.9746L19.6951 10.3225C19.1678 10.3274 18.6405 10.3251 18.1133 10.3156C18.113 10.1 18.1219 9.92925 18.1379 9.71388Z" fill="black"/>
<path d="M13.4159 23.0175L14.0226 23.0139L14.0248 26.7574L13.4288 26.7588C13.4113 25.6588 13.3618 24.0854 13.4159 23.0175Z" fill="black"/>
<path d="M19.7033 22.8899L20.2902 22.8879L20.2939 26.7571C20.0979 26.7612 19.8943 26.7587 19.6975 26.7591L19.7033 22.8899Z" fill="black"/>
<path d="M13.4026 13.0312L14.0225 13.0293L14.025 15.2642L13.4005 15.2621L13.4026 13.0312Z" fill="black"/>
<path d="M17.1912 28.4026L18.1472 28.3999C18.1223 28.9085 18.1311 29.5501 18.1253 30.0684C18.6404 30.0498 19.1726 30.0778 19.6975 30.0559L19.6984 31.1513C18.666 31.1359 17.5785 31.1493 16.5436 31.1546C16.5059 32.4088 16.5364 33.7684 16.5307 35.0334L17.1927 35.0308L17.192 33.393L18.1343 33.3927L18.1162 35.0341L18.7356 35.0318C18.6729 34.0879 18.7119 32.7171 18.7101 31.7444C19.0524 31.7434 19.3593 31.7431 19.7007 31.7188L19.6983 35.035L21.2706 35.0377C21.2901 35.5713 21.2788 36.1382 21.2768 36.6744L22.8657 36.6781L22.8648 37.7257L21.2869 37.726C21.2793 39.328 21.3174 41.0866 21.2691 42.6754C21.2106 42.7254 20.4203 42.6988 20.2936 42.6971L20.2892 41.0121L17.1928 41.0094L17.1917 36.0869L16.5358 36.0876V39.3726L15.6057 39.372L15.6066 36.0869C14.8808 36.0794 14.1463 36.0859 13.4198 36.0876C13.4274 36.6314 13.4154 37.1792 13.4234 37.726L12.4674 37.7244C12.4103 36.9513 12.4433 35.8324 12.4441 35.0344L15.6074 35.0304L15.5922 30.0742C16.1254 30.0642 16.6587 30.0606 17.192 30.0635L17.1912 28.4026Z" fill="#F5F5F5"/>
<path d="M18.1395 36.0857H20.2918L20.2953 39.9612C19.5754 39.9888 18.8608 39.9855 18.1406 39.9888L18.1395 36.0857Z" fill="black"/>
<path d="M18.709 36.6785L19.6967 36.6775C19.6986 36.9964 19.7112 37.4161 19.688 37.7245L18.724 37.7208L18.709 36.6785Z" fill="#F5F5F5"/>
<path d="M18.7081 38.3215L19.6947 38.3196L19.6974 39.3685H18.7425C18.723 39.0197 18.7116 38.6706 18.7081 38.3215Z" fill="#F5F5F5"/>
<path d="M10.8599 18.6094L11.8409 18.6155L11.8452 21.302C11.576 21.2813 11.1426 21.2893 10.8609 21.2858L10.8599 18.6094Z" fill="#F5F5F5"/>
<path d="M18.7087 16.9698C19.0376 16.964 19.3665 16.9609 19.6955 16.9604L19.697 19.5994L18.7138 19.5961L18.7087 16.9698Z" fill="#F5F5F5"/>
<path d="M25.1169 11.4537C25.4537 11.444 25.8239 11.4536 26.1634 11.4562L26.1647 12.5095L25.1139 12.5075L25.1169 11.4537Z" fill="#F5F5F5"/>
<path d="M6.10922 21.8383C6.43065 21.833 6.77721 21.8535 7.10025 21.8662C7.11121 22.1647 7.12189 22.6248 7.09514 22.9167C6.75643 22.9399 6.44829 22.9403 6.10912 22.9414C6.10674 22.5737 6.10678 22.206 6.10922 21.8383Z" fill="#F5F5F5"/>
<path d="M7.69126 21.8384C8.0181 21.8315 8.35704 21.8353 8.685 21.835C8.6852 22.1101 8.70268 22.693 8.67006 22.9385L7.69099 22.9258L7.69126 21.8384Z" fill="#F5F5F5"/>
<path d="M6.10628 25.1106L7.12018 25.1153L7.10897 26.1652C6.80347 26.1771 6.41739 26.1659 6.10559 26.1657L6.10628 25.1106Z" fill="#F5F5F5"/>
<path d="M21.8757 30.0807L22.8648 30.073C22.8641 30.3969 22.8825 30.8393 22.8541 31.1493C22.529 31.1519 22.2038 31.1503 21.8787 31.1447L21.8757 30.0807Z" fill="#F5F5F5"/>
<path d="M6.10533 26.7551L7.1249 26.7619C7.10956 27.1142 7.10996 27.4558 7.10966 27.8084C6.83006 27.8273 6.39691 27.8132 6.10599 27.8117L6.10533 26.7551Z" fill="#F5F5F5"/>
<path d="M7.6929 30.0884L8.68338 30.071C8.68414 30.3666 8.69862 30.8759 8.66992 31.1531C8.35301 31.1469 8.00678 31.1318 7.6925 31.1515L7.6929 30.0884Z" fill="#F5F5F5"/>
<path d="M14.0243 38.3188L15.0166 38.3198L15.0165 39.373L14.026 39.374L14.0243 38.3188Z" fill="#F5F5F5"/>
<path d="M7.69057 25.114L8.68151 25.1142L8.68055 26.1712L7.69212 26.1664L7.69057 25.114Z" fill="#F5F5F5"/>
<path d="M6.10391 28.4017C6.43863 28.4 6.77705 28.4048 7.1121 28.4071L7.10495 29.4546L6.10612 29.4497L6.10391 28.4017Z" fill="#F5F5F5"/>
<path d="M13.176 8.64673C13.2634 8.64115 13.2955 8.63198 13.3765 8.66726C13.4784 8.85904 13.4304 9.45014 13.4323 9.71684L12.8126 9.71615C12.6808 9.71855 12.6196 9.71684 12.489 9.70049C12.4113 9.60952 12.4497 8.83625 12.4529 8.662L13.176 8.64673Z" fill="#F5F5F5"/>
<path d="M21.8752 21.8662L22.8644 21.8778C22.8696 22.2251 22.8688 22.5725 22.8619 22.9197C22.5376 22.9213 22.2015 22.9329 21.8763 22.9399L21.8752 21.8662Z" fill="#F5F5F5"/>
<path d="M7.69102 33.3928L8.68252 33.3941L8.68232 34.4434L7.69092 34.4404L7.69102 33.3928Z" fill="#F5F5F5"/>
<path d="M21.8764 10.3086L22.8631 10.309L22.8661 11.3587L21.8782 11.3627L21.8764 10.3086Z" fill="#F5F5F5"/>
<path d="M14.0244 36.6779L15.0134 36.6772L15.0163 37.7258L14.0258 37.7245L14.0244 36.6779Z" fill="#F5F5F5"/>
<path d="M14.0455 8.64429C14.26 8.66695 14.7769 8.6587 15.0138 8.66156L15.0146 9.71374L14.0256 9.70731C14.0227 9.47815 14.0039 8.83851 14.0455 8.64429Z" fill="#F5F5F5"/>
<path d="M23.4575 13.6263L24.4464 13.6233L24.4486 14.6691L23.4596 14.6733L23.4575 13.6263Z" fill="#F5F5F5"/>
<path d="M9.27586 30.084L10.2566 30.0801L10.2595 31.1531C9.94649 31.1439 9.59182 31.1521 9.27547 31.1518L9.27586 30.084Z" fill="#F5F5F5"/>
<path d="M21.8764 35.0361L22.8643 35.0365L22.8651 36.0815L21.8797 36.0844L21.8764 35.0361Z" fill="#F5F5F5"/>
<path d="M9.27708 15.2656L10.2611 15.2684L10.2654 16.3146L9.27672 16.3132L9.27708 15.2656Z" fill="#F5F5F5"/>
<path d="M9.27573 13.6233L10.2614 13.6322L10.2642 14.6747L9.27665 14.6731L9.27573 13.6233Z" fill="#F5F5F5"/>
<path d="M21.8778 38.3212L22.8632 38.3196L22.8656 39.3679L21.8782 39.3705C21.8737 39.023 21.8773 38.6693 21.8778 38.3212Z" fill="#F5F5F5"/>
<path d="M6.11895 20.2375C6.47037 20.2337 6.74904 20.2366 7.0994 20.2586L7.09848 21.2795C6.77279 21.2858 6.43744 21.2824 6.1108 21.2828C6.10718 20.9462 6.09438 20.5692 6.11895 20.2375Z" fill="#F5F5F5"/>
<path d="M7.69334 31.7304L8.68395 31.7153L8.68095 32.7997C8.39182 32.7705 7.99053 32.7695 7.6909 32.7613L7.69334 31.7304Z" fill="#F5F5F5"/>
<path d="M9.27691 28.403L10.2621 28.4026L10.2447 29.4541L9.27592 29.4516L9.27691 28.403Z" fill="#F5F5F5"/>
<path d="M18.7079 28.4045L19.6998 28.4026L19.699 29.4556C19.3764 29.4493 19.0397 29.4533 18.7159 29.4522C18.7201 29.1105 18.7108 28.748 18.7079 28.4045Z" fill="#F5F5F5"/>
<path d="M21.874 6.9905C22.2002 6.98535 22.5374 6.98984 22.8645 6.99007L22.8647 8.0375L21.8785 8.03569L21.874 6.9905Z" fill="#F5F5F5"/>
<path d="M10.8599 36.6775L11.8446 36.6778L11.8464 37.7264L10.8721 37.7231C10.856 37.3832 10.8608 37.0194 10.8599 36.6775Z" fill="#F5F5F5"/>
<path d="M21.8768 15.2672C22.2002 15.2604 22.5412 15.2662 22.8662 15.267L22.8657 16.3145L21.8777 16.3122L21.8768 15.2672Z" fill="#F5F5F5"/>
<path d="M18.71 15.2676C19.0339 15.262 19.3702 15.2667 19.6952 15.2671L19.699 16.3153L18.7103 16.3127L18.71 15.2676Z" fill="#F5F5F5"/>
<path d="M12.4439 33.3933L13.4291 33.3936L13.4293 34.4439L12.449 34.4416C12.4411 34.0974 12.445 33.7385 12.4439 33.3933Z" fill="#F5F5F5"/>
<path d="M10.8604 10.3132L11.8435 10.3105C11.8315 10.6574 11.8412 11.0159 11.8456 11.3639C11.5303 11.3552 11.1771 11.3627 10.8587 11.3625C10.8569 11.0127 10.8575 10.663 10.8604 10.3132Z" fill="#F5F5F5"/>
<path d="M14.0244 6.98975L15.0123 6.99093L15.0138 8.03947C14.6908 8.0306 14.3504 8.03474 14.026 8.03431L14.0244 6.98975Z" fill="#F5F5F5"/>
<path d="M10.859 13.6243L11.8422 13.6281C11.8355 13.9777 11.8367 14.3274 11.8459 14.6768L10.8587 14.6748L10.859 13.6243Z" fill="#F5F5F5"/>
<path d="M10.8572 11.9816L11.8419 11.98C11.8263 12.3374 11.8388 12.6751 11.8491 13.0325L10.8573 13.0253L10.8572 11.9816Z" fill="#F5F5F5"/>
<path d="M7.69102 20.2508C8.02713 20.2423 8.348 20.2491 8.68408 20.2559L8.68295 21.2978C8.45646 21.2769 7.91917 21.2802 7.69264 21.2949L7.69102 20.2508Z" fill="#F5F5F5"/>
<path d="M12.4449 38.3186L13.4314 38.3193C13.4186 38.6756 13.4219 39.0211 13.4245 39.3774L12.4722 39.3794C12.4391 39.0227 12.445 38.6766 12.4449 38.3186Z" fill="#F5F5F5"/>
<path d="M12.4495 10.3109C12.7434 10.3214 13.124 10.3064 13.4239 10.3027C13.3941 10.6218 13.4222 11.0582 13.4346 11.3882C13.1373 11.3508 12.7499 11.3613 12.4438 11.3605L12.4495 10.3109Z" fill="#F5F5F5"/>
<path d="M18.7094 5.34877C19.0397 5.34224 19.3597 5.37472 19.694 5.36759L19.6976 6.39081L18.7103 6.39669L18.7094 5.34877Z" fill="#F5F5F5"/>
<path d="M21.8752 39.9915C22.1873 39.9794 22.5475 39.9879 22.8632 39.9892L22.8649 41.0106L21.8782 41.0109L21.8752 39.9915Z" fill="#F5F5F5"/>
<path d="M18.7062 41.6701C19.0342 41.6658 19.3694 41.6694 19.698 41.6694L19.6967 42.7098C19.3733 42.7068 19.05 42.6996 18.7269 42.6881C18.7042 42.3811 18.7095 41.985 18.7062 41.6701Z" fill="#F5F5F5"/>
<path d="M7.69233 16.9607L8.68043 16.9719L8.68436 17.9607L7.69118 17.9574L7.69233 16.9607Z" fill="#F5F5F5"/>
<path d="M21.8741 16.9642C22.2056 16.9526 22.533 16.9614 22.8645 16.9672L22.866 17.9549L21.8776 17.9599L21.8741 16.9642Z" fill="#F5F5F5"/>
<path d="M17.1879 26.7582L18.1447 26.7571C18.1151 27.0968 18.1278 27.4561 18.1332 27.798C18.0303 27.8285 17.3369 27.8135 17.1915 27.8123L17.1879 26.7582Z" fill="#F5F5F5"/>
<path d="M7.69083 18.6113L8.68081 18.6139L8.68269 19.6018L7.69205 19.5964L7.69083 18.6113Z" fill="#F5F5F5"/>
<path d="M17.1809 31.7474L18.1344 31.7424C18.1128 32.0232 18.1255 32.4991 18.1244 32.7946L17.1909 32.7923L17.1809 31.7474Z" fill="#F5F5F5"/>
<path d="M15.5843 28.4021C15.9054 28.4001 16.2264 28.4021 16.5474 28.4082C16.5241 28.7379 16.5356 29.1196 16.5382 29.4548L15.6065 29.4519C15.605 29.0947 15.6035 28.7589 15.5843 28.4021Z" fill="#F5F5F5"/>
<path d="M9.28422 16.9546C9.60287 16.9717 9.93958 16.9689 10.2599 16.9717L10.2685 17.9579L9.27739 17.959C9.27432 17.6295 9.26403 17.2823 9.28422 16.9546Z" fill="#F5F5F5"/>
<path d="M17.1913 6.98926L18.124 6.98995C18.1237 7.34699 18.1204 7.68233 18.1472 8.03859C17.8463 8.02772 17.4962 8.03514 17.1915 8.03432L17.1913 6.98926Z" fill="#F5F5F5"/>
<path d="M20.2904 16.9647C20.6225 16.9536 20.9455 16.9635 21.2774 16.971L21.2779 17.9547C20.9537 17.9591 20.6223 17.9561 20.2974 17.9567L20.2904 16.9647Z" fill="#F5F5F5"/>
<path d="M15.6071 8.65381C15.8854 8.66865 16.2475 8.66235 16.5321 8.66517C16.5325 9.01181 16.535 9.35847 16.5395 9.70511L15.6076 9.72028L15.6071 8.65381Z" fill="#F5F5F5"/>
<path d="M15.6049 39.9914L16.5568 39.9907C16.5566 40.326 16.5461 40.6709 16.5398 41.0068C16.2616 41.0199 15.8919 41.0094 15.6066 41.0094L15.6049 39.9914Z" fill="#F5F5F5"/>
<path d="M19.5692 8.00957V9.15601H19.3606V8.21165H19.3539L19.0845 8.38295V8.19262L19.3707 8.00957H19.5692Z" fill="black"/>
<path d="M20.4342 9.17784C20.3416 9.17784 20.2621 9.15452 20.1957 9.10787C20.1298 9.06085 20.079 8.99311 20.0434 8.90467C20.0081 8.81585 19.9905 8.70893 19.9905 8.58391C19.9909 8.45889 20.0087 8.35253 20.0439 8.26483C20.0795 8.17676 20.1303 8.10959 20.1963 8.06331C20.2627 8.01703 20.3419 7.9939 20.4342 7.9939C20.5264 7.9939 20.6057 8.01703 20.672 8.06331C20.7384 8.10959 20.7891 8.17676 20.8244 8.26483C20.86 8.35291 20.8778 8.45926 20.8778 8.58391C20.8778 8.7093 20.86 8.81641 20.8244 8.90523C20.7891 8.99367 20.7384 9.06122 20.672 9.10787C20.606 9.15452 20.5267 9.17784 20.4342 9.17784ZM20.4342 9.00263C20.5061 9.00263 20.5629 8.96736 20.6045 8.89683C20.6465 8.82592 20.6675 8.72162 20.6675 8.58391C20.6675 8.49285 20.6579 8.41635 20.6388 8.3544C20.6197 8.29245 20.5927 8.2458 20.5579 8.21445C20.523 8.18273 20.4818 8.16687 20.4342 8.16687C20.3626 8.16687 20.306 8.20232 20.2643 8.27323C20.2227 8.34376 20.2017 8.44732 20.2014 8.58391C20.201 8.67534 20.2102 8.75222 20.2289 8.81454C20.248 8.87686 20.275 8.92389 20.3099 8.95561C20.3448 8.98696 20.3862 9.00263 20.4342 9.00263Z" fill="black"/>
<path d="M20.8887 33.0998V34.2462H20.6801V33.3018H20.6734L20.404 33.4731V33.2828L20.6902 33.0998H20.8887Z" fill="black"/>
<path d="M21.7536 34.268C21.6611 34.268 21.5816 34.2447 21.5152 34.1981C21.4493 34.151 21.3985 34.0833 21.3629 33.9949C21.3276 33.906 21.31 33.7991 21.31 33.6741C21.3104 33.5491 21.3282 33.4427 21.3634 33.355C21.399 33.267 21.4498 33.1998 21.5158 33.1535C21.5822 33.1072 21.6614 33.0841 21.7536 33.0841C21.8459 33.0841 21.9251 33.1072 21.9915 33.1535C22.0578 33.1998 22.1086 33.267 22.1439 33.355C22.1795 33.4431 22.1973 33.5495 22.1973 33.6741C22.1973 33.7995 22.1795 33.9066 22.1439 33.9954C22.1086 34.0839 22.0578 34.1514 21.9915 34.1981C21.9255 34.2447 21.8462 34.268 21.7536 34.268ZM21.7536 34.0928C21.8256 34.0928 21.8824 34.0576 21.924 33.987C21.966 33.9161 21.987 33.8118 21.987 33.6741C21.987 33.583 21.9774 33.5065 21.9583 33.4446C21.9392 33.3826 21.9122 33.336 21.8774 33.3046C21.8425 33.2729 21.8013 33.2571 21.7536 33.2571C21.6821 33.2571 21.6254 33.2925 21.5838 33.3634C21.5422 33.434 21.5212 33.5375 21.5209 33.6741C21.5205 33.7655 21.5297 33.8424 21.5484 33.9047C21.5675 33.9671 21.5945 34.0141 21.6294 34.0458C21.6642 34.0771 21.7057 34.0928 21.7536 34.0928Z" fill="black"/>
<path d="M23.0133 33.0998V34.2462H22.8047V33.3018H22.798L22.5286 33.4731V33.2828L22.8148 33.0998H23.0133Z" fill="black"/>
<path d="M23.8782 34.268C23.7856 34.268 23.7062 34.2447 23.6398 34.1981C23.5739 34.151 23.5231 34.0833 23.4875 33.9949C23.4522 33.906 23.4346 33.7991 23.4346 33.6741C23.435 33.5491 23.4528 33.4427 23.488 33.355C23.5236 33.267 23.5744 33.1998 23.6404 33.1535C23.7067 33.1072 23.786 33.0841 23.8782 33.0841C23.9705 33.0841 24.0497 33.1072 24.1161 33.1535C24.1824 33.1998 24.2332 33.267 24.2685 33.355C24.3041 33.4431 24.3219 33.5495 24.3219 33.6741C24.3219 33.7995 24.3041 33.9066 24.2685 33.9954C24.2332 34.0839 24.1824 34.1514 24.1161 34.1981C24.0501 34.2447 23.9708 34.268 23.8782 34.268ZM23.8782 34.0928C23.9502 34.0928 24.007 34.0576 24.0486 33.987C24.0906 33.9161 24.1116 33.8118 24.1116 33.6741C24.1116 33.583 24.102 33.5065 24.0829 33.4446C24.0638 33.3826 24.0368 33.336 24.0019 33.3046C23.9671 33.2729 23.9258 33.2571 23.8782 33.2571C23.8066 33.2571 23.75 33.2925 23.7084 33.3634C23.6668 33.434 23.6458 33.5375 23.6455 33.6741C23.6451 33.7655 23.6543 33.8424 23.673 33.9047C23.6921 33.9671 23.7191 34.0141 23.754 34.0458C23.7888 34.0771 23.8303 34.0928 23.8782 34.0928Z" fill="black"/>
<path d="M14.8856 27.5685C14.793 27.5685 14.7135 27.5452 14.6472 27.4986C14.5812 27.4515 14.5304 27.3838 14.4948 27.2954C14.4596 27.2065 14.4419 27.0996 14.4419 26.9746C14.4423 26.8496 14.4601 26.7432 14.4954 26.6555C14.531 26.5674 14.5818 26.5003 14.6477 26.454C14.7141 26.4077 14.7934 26.3846 14.8856 26.3846C14.9778 26.3846 15.0571 26.4077 15.1234 26.454C15.1898 26.5003 15.2406 26.5674 15.2758 26.6555C15.3114 26.7436 15.3292 26.8499 15.3292 26.9746C15.3292 27.1 15.3114 27.2071 15.2758 27.2959C15.2406 27.3844 15.1898 27.4519 15.1234 27.4986C15.0575 27.5452 14.9782 27.5685 14.8856 27.5685ZM14.8856 27.3933C14.9576 27.3933 15.0143 27.358 15.056 27.2875C15.0979 27.2166 15.1189 27.1123 15.1189 26.9746C15.1189 26.8835 15.1094 26.807 15.0903 26.7451C15.0711 26.6831 15.0441 26.6365 15.0093 26.6051C14.9744 26.5734 14.9332 26.5576 14.8856 26.5576C14.814 26.5576 14.7574 26.593 14.7158 26.6639C14.6742 26.7344 14.6532 26.838 14.6528 26.9746C14.6524 27.066 14.6616 27.1429 14.6803 27.2052C14.6995 27.2675 14.7265 27.3146 14.7613 27.3463C14.7962 27.3776 14.8376 27.3933 14.8856 27.3933Z" fill="black"/>
<path d="M16.1452 26.4003V27.5467H15.9366V26.6023H15.9299L15.6606 26.7736V26.5833L15.9468 26.4003H16.1452Z" fill="black"/>
<path d="M11.6523 16.0226V17.169H11.4437V16.2247H11.4369L11.1676 16.396V16.2056L11.4538 16.0226H11.6523Z" fill="black"/>
<path d="M12.5172 17.1909C12.4246 17.1909 12.3451 17.1675 12.2788 17.1209C12.2128 17.0739 12.162 17.0061 12.1264 16.9177C12.0912 16.8289 12.0736 16.7219 12.0736 16.5969C12.0739 16.4719 12.0917 16.3655 12.127 16.2778C12.1626 16.1898 12.2134 16.1226 12.2793 16.0763C12.3457 16.03 12.425 16.0069 12.5172 16.0069C12.6094 16.0069 12.6887 16.03 12.755 16.0763C12.8214 16.1226 12.8722 16.1898 12.9074 16.2778C12.943 16.3659 12.9608 16.4723 12.9608 16.5969C12.9608 16.7223 12.943 16.8294 12.9074 16.9182C12.8722 17.0067 12.8214 17.0742 12.755 17.1209C12.6891 17.1675 12.6098 17.1909 12.5172 17.1909ZM12.5172 17.0156C12.5892 17.0156 12.646 16.9804 12.6876 16.9098C12.7296 16.8389 12.7505 16.7346 12.7505 16.5969C12.7505 16.5059 12.741 16.4294 12.7219 16.3674C12.7027 16.3055 12.6758 16.2588 12.6409 16.2275C12.606 16.1957 12.5648 16.1799 12.5172 16.1799C12.4456 16.1799 12.389 16.2153 12.3474 16.2862C12.3058 16.3568 12.2848 16.4603 12.2844 16.5969C12.284 16.6884 12.2932 16.7652 12.312 16.8276C12.3311 16.8899 12.3581 16.9369 12.3929 16.9686C12.4278 17 12.4692 17.0156 12.5172 17.0156Z" fill="black"/>
<path d="M18.0524 12.3304C17.9598 12.3304 17.8803 12.3071 17.814 12.2605C17.748 12.2134 17.6972 12.1457 17.6616 12.0573C17.6263 11.9684 17.6087 11.8615 17.6087 11.7365C17.6091 11.6115 17.6269 11.5051 17.6621 11.4174C17.6978 11.3293 17.7485 11.2622 17.8145 11.2159C17.8809 11.1696 17.9602 11.1465 18.0524 11.1465C18.1446 11.1465 18.2239 11.1696 18.2902 11.2159C18.3566 11.2622 18.4074 11.3293 18.4426 11.4174C18.4782 11.5055 18.496 11.6119 18.496 11.7365C18.496 11.8619 18.4782 11.969 18.4426 12.0578C18.4074 12.1463 18.3566 12.2138 18.2902 12.2605C18.2242 12.3071 18.145 12.3304 18.0524 12.3304ZM18.0524 12.1552C18.1243 12.1552 18.1811 12.12 18.2227 12.0494C18.2647 11.9785 18.2857 11.8742 18.2857 11.7365C18.2857 11.6454 18.2762 11.5689 18.257 11.507C18.2379 11.445 18.2109 11.3984 18.1761 11.367C18.1412 11.3353 18.1 11.3195 18.0524 11.3195C17.9808 11.3195 17.9242 11.3549 17.8826 11.4258C17.8409 11.4964 17.82 11.5999 17.8196 11.7365C17.8192 11.8279 17.8284 11.9048 17.8471 11.9671C17.8663 12.0295 17.8932 12.0765 17.9281 12.1082C17.963 12.1395 18.0044 12.1552 18.0524 12.1552Z" fill="black"/>
<path d="M19.312 11.1622V12.3086H19.1034V11.3642H19.0967L18.8273 11.5355V11.3452L19.1135 11.1622H19.312Z" fill="black"/>
<path d="M9.80497 26.5316V27.6781H9.59636V26.7337H9.58962L9.32028 26.905V26.7147L9.60648 26.5316H9.80497Z" fill="black"/>
<path d="M10.6699 27.6999C10.5773 27.6999 10.4978 27.6766 10.4315 27.6299C10.3655 27.5829 10.3147 27.5152 10.2791 27.4267C10.2439 27.3379 10.2263 27.231 10.2263 27.106C10.2266 26.9809 10.2444 26.8746 10.2797 26.7869C10.3153 26.6988 10.3661 26.6316 10.4321 26.5854C10.4984 26.5391 10.5777 26.5159 10.6699 26.5159C10.7621 26.5159 10.8414 26.5391 10.9078 26.5854C10.9741 26.6316 11.0249 26.6988 11.0601 26.7869C11.0957 26.875 11.1135 26.9813 11.1135 27.106C11.1135 27.2313 11.0957 27.3385 11.0601 27.4273C11.0249 27.5157 10.9741 27.5833 10.9078 27.6299C10.8418 27.6766 10.7625 27.6999 10.6699 27.6999ZM10.6699 27.5247C10.7419 27.5247 10.7987 27.4894 10.8403 27.4189C10.8823 27.348 10.9033 27.2437 10.9033 27.106C10.9033 27.0149 10.8937 26.9384 10.8746 26.8764C10.8555 26.8145 10.8285 26.7678 10.7936 26.7365C10.7587 26.7048 10.7175 26.6889 10.6699 26.6889C10.5983 26.6889 10.5417 26.7244 10.5001 26.7953C10.4585 26.8658 10.4375 26.9694 10.4371 27.106C10.4367 27.1974 10.4459 27.2743 10.4647 27.3366C10.4838 27.3989 10.5108 27.4459 10.5456 27.4777C10.5805 27.509 10.6219 27.5247 10.6699 27.5247Z" fill="black"/>
<path d="M11.9296 26.5316V27.6781H11.721V26.7337H11.7142L11.4449 26.905V26.7147L11.7311 26.5316H11.9296Z" fill="black"/>
<path d="M12.7945 27.6999C12.7019 27.6999 12.6224 27.6766 12.5561 27.6299C12.4901 27.5829 12.4393 27.5152 12.4037 27.4267C12.3685 27.3379 12.3509 27.231 12.3509 27.106C12.3512 26.9809 12.369 26.8746 12.4043 26.7869C12.4399 26.6988 12.4907 26.6316 12.5566 26.5854C12.623 26.5391 12.7023 26.5159 12.7945 26.5159C12.8867 26.5159 12.966 26.5391 13.0323 26.5854C13.0987 26.6316 13.1495 26.6988 13.1847 26.7869C13.2203 26.875 13.2381 26.9813 13.2381 27.106C13.2381 27.2313 13.2203 27.3385 13.1847 27.4273C13.1495 27.5157 13.0987 27.5833 13.0323 27.6299C12.9664 27.6766 12.8871 27.6999 12.7945 27.6999ZM12.7945 27.5247C12.8665 27.5247 12.9233 27.4894 12.9649 27.4189C13.0069 27.348 13.0278 27.2437 13.0278 27.106C13.0278 27.0149 13.0183 26.9384 12.9992 26.8764C12.98 26.8145 12.9531 26.7678 12.9182 26.7365C12.8833 26.7048 12.8421 26.6889 12.7945 26.6889C12.7229 26.6889 12.6663 26.7244 12.6247 26.7953C12.5831 26.8658 12.5621 26.9694 12.5617 27.106C12.5613 27.1974 12.5705 27.2743 12.5893 27.3366C12.6084 27.3989 12.6354 27.4459 12.6702 27.4777C12.7051 27.509 12.7465 27.5247 12.7945 27.5247Z" fill="black"/>
<path d="M14.4897 22.9708C14.3971 22.9708 14.3177 22.9475 14.2513 22.9009C14.1854 22.8538 14.1346 22.7861 14.0989 22.6976C14.0637 22.6088 14.0461 22.5019 14.0461 22.3769C14.0465 22.2519 14.0643 22.1455 14.0995 22.0578C14.1351 21.9697 14.1859 21.9026 14.2519 21.8563C14.3182 21.81 14.3975 21.7869 14.4897 21.7869C14.5819 21.7869 14.6612 21.81 14.7276 21.8563C14.7939 21.9026 14.8447 21.9697 14.88 22.0578C14.9156 22.1459 14.9334 22.2522 14.9334 22.3769C14.9334 22.5023 14.9156 22.6094 14.88 22.6982C14.8447 22.7867 14.7939 22.8542 14.7276 22.9009C14.6616 22.9475 14.5823 22.9708 14.4897 22.9708ZM14.4897 22.7956C14.5617 22.7956 14.6185 22.7603 14.6601 22.6898C14.7021 22.6189 14.7231 22.5146 14.7231 22.3769C14.7231 22.2858 14.7135 22.2093 14.6944 22.1474C14.6753 22.0854 14.6483 22.0388 14.6134 22.0074C14.5786 21.9757 14.5373 21.9599 14.4897 21.9599C14.4181 21.9599 14.3615 21.9953 14.3199 22.0662C14.2783 22.1367 14.2573 22.2403 14.2569 22.3769C14.2566 22.4683 14.2658 22.5452 14.2845 22.6075C14.3036 22.6698 14.3306 22.7169 14.3655 22.7486C14.4003 22.7799 14.4418 22.7956 14.4897 22.7956Z" fill="black"/>
<path d="M15.7494 21.8026V22.949H15.5408V22.0046H15.534L15.2647 22.1759V21.9856L15.5509 21.8026H15.7494Z" fill="black"/>
<path d="M16.6143 22.9708C16.5217 22.9708 16.4423 22.9475 16.3759 22.9009C16.3099 22.8538 16.2591 22.7861 16.2235 22.6976C16.1883 22.6088 16.1707 22.5019 16.1707 22.3769C16.1711 22.2519 16.1889 22.1455 16.2241 22.0578C16.2597 21.9697 16.3105 21.9026 16.3765 21.8563C16.4428 21.81 16.5221 21.7869 16.6143 21.7869C16.7065 21.7869 16.7858 21.81 16.8522 21.8563C16.9185 21.9026 16.9693 21.9697 17.0046 22.0578C17.0402 22.1459 17.058 22.2522 17.058 22.3769C17.058 22.5023 17.0402 22.6094 17.0046 22.6982C16.9693 22.7867 16.9185 22.8542 16.8522 22.9009C16.7862 22.9475 16.7069 22.9708 16.6143 22.9708ZM16.6143 22.7956C16.6863 22.7956 16.7431 22.7603 16.7847 22.6898C16.8267 22.6189 16.8477 22.5146 16.8477 22.3769C16.8477 22.2858 16.8381 22.2093 16.819 22.1474C16.7999 22.0854 16.7729 22.0388 16.738 22.0074C16.7032 21.9757 16.6619 21.9599 16.6143 21.9599C16.5427 21.9599 16.4861 21.9953 16.4445 22.0662C16.4029 22.1367 16.3819 22.2403 16.3815 22.3769C16.3812 22.4683 16.3903 22.5452 16.4091 22.6075C16.4282 22.6698 16.4552 22.7169 16.4901 22.7486C16.5249 22.7799 16.5663 22.7956 16.6143 22.7956Z" fill="black"/>
<path d="M17.874 21.8026V22.949H17.6654V22.0046H17.6586L17.3893 22.1759V21.9856L17.6755 21.8026H17.874Z" fill="black"/>
<path d="M14.6871 20.4889V21.6354H14.4785V20.691H14.4717L14.2024 20.8623V20.672L14.4886 20.4889H14.6871Z" fill="black"/>
<path d="M15.552 21.6572C15.4594 21.6572 15.38 21.6339 15.3136 21.5872C15.2476 21.5402 15.1969 21.4725 15.1612 21.384C15.126 21.2952 15.1084 21.1883 15.1084 21.0633C15.1088 20.9382 15.1266 20.8319 15.1618 20.7442C15.1974 20.6561 15.2482 20.5889 15.3142 20.5427C15.3805 20.4964 15.4598 20.4733 15.552 20.4733C15.6442 20.4733 15.7235 20.4964 15.7899 20.5427C15.8562 20.5889 15.907 20.6561 15.9423 20.7442C15.9779 20.8323 15.9957 20.9386 15.9957 21.0633C15.9957 21.1887 15.9779 21.2958 15.9423 21.3846C15.907 21.473 15.8562 21.5406 15.7899 21.5872C15.7239 21.6339 15.6446 21.6572 15.552 21.6572ZM15.552 21.482C15.624 21.482 15.6808 21.4467 15.7224 21.3762C15.7644 21.3053 15.7854 21.201 15.7854 21.0633C15.7854 20.9722 15.7758 20.8957 15.7567 20.8338C15.7376 20.7718 15.7106 20.7252 15.6757 20.6938C15.6409 20.6621 15.5996 20.6462 15.552 20.6462C15.4804 20.6462 15.4238 20.6817 15.3822 20.7526C15.3406 20.8231 15.3196 20.9267 15.3192 21.0633C15.3189 21.1547 15.3281 21.2316 15.3468 21.2939C15.3659 21.3562 15.3929 21.4032 15.4278 21.435C15.4626 21.4663 15.504 21.482 15.552 21.482Z" fill="black"/>
<path d="M16.8117 20.4889V21.6354H16.6031V20.691H16.5963L16.327 20.8623V20.672L16.6132 20.4889H16.8117Z" fill="black"/>
<path d="M17.6766 21.6572C17.584 21.6572 17.5046 21.6339 17.4382 21.5872C17.3722 21.5402 17.3214 21.4725 17.2858 21.384C17.2506 21.2952 17.233 21.1883 17.233 21.0633C17.2334 20.9382 17.2512 20.8319 17.2864 20.7442C17.322 20.6561 17.3728 20.5889 17.4388 20.5427C17.5051 20.4964 17.5844 20.4733 17.6766 20.4733C17.7688 20.4733 17.8481 20.4964 17.9145 20.5427C17.9808 20.5889 18.0316 20.6561 18.0668 20.7442C18.1025 20.8323 18.1203 20.9386 18.1203 21.0633C18.1203 21.1887 18.1025 21.2958 18.0668 21.3846C18.0316 21.473 17.9808 21.5406 17.9145 21.5872C17.8485 21.6339 17.7692 21.6572 17.6766 21.6572ZM17.6766 21.482C17.7486 21.482 17.8054 21.4467 17.847 21.3762C17.889 21.3053 17.91 21.201 17.91 21.0633C17.91 20.9722 17.9004 20.8957 17.8813 20.8338C17.8622 20.7718 17.8352 20.7252 17.8003 20.6938C17.7655 20.6621 17.7242 20.6462 17.6766 20.6462C17.605 20.6462 17.5484 20.6817 17.5068 20.7526C17.4652 20.8231 17.4442 20.9267 17.4438 21.0633C17.4435 21.1547 17.4526 21.2316 17.4714 21.2939C17.4905 21.3562 17.5175 21.4032 17.5524 21.435C17.5872 21.4663 17.6286 21.482 17.6766 21.482Z" fill="black"/>
<path d="M21.0207 19.9635V21.1099H20.8121V20.1656H20.8053L20.536 20.3368V20.1465L20.8222 19.9635H21.0207Z" fill="black"/>
<path d="M22.4067 21.1317C22.3141 21.1317 22.2346 21.1084 22.1683 21.0618C22.1023 21.0147 22.0515 20.947 22.0159 20.8586C21.9807 20.7697 21.9631 20.6628 21.9631 20.5378C21.9634 20.4128 21.9812 20.3064 22.0165 20.2187C22.0521 20.1307 22.1029 20.0635 22.1688 20.0172C22.2352 19.9709 22.3145 19.9478 22.4067 19.9478C22.4989 19.9478 22.5782 19.9709 22.6445 20.0172C22.7109 20.0635 22.7617 20.1307 22.7969 20.2187C22.8325 20.3068 22.8503 20.4132 22.8503 20.5378C22.8503 20.6632 22.8325 20.7703 22.7969 20.8591C22.7617 20.9476 22.7109 21.0151 22.6445 21.0618C22.5786 21.1084 22.4993 21.1317 22.4067 21.1317ZM22.4067 20.9565C22.4787 20.9565 22.5355 20.9213 22.5771 20.8507C22.6191 20.7798 22.64 20.6755 22.64 20.5378C22.64 20.4468 22.6305 20.3702 22.6114 20.3083C22.5922 20.2464 22.5653 20.1997 22.5304 20.1684C22.4955 20.1366 22.4543 20.1208 22.4067 20.1208C22.3351 20.1208 22.2785 20.1562 22.2369 20.2271C22.1953 20.2977 22.1743 20.4012 22.1739 20.5378C22.1735 20.6292 22.1827 20.7061 22.2015 20.7684C22.2206 20.8308 22.2476 20.8778 22.2824 20.9095C22.3173 20.9409 22.3587 20.9565 22.4067 20.9565Z" fill="black"/>
</svg>
