<svg width="48" height="48" viewBox="0 0 48 48" fill="none" xmlns="http://www.w3.org/2000/svg">
<rect x="1" y="1" width="46" height="46" rx="23" stroke="white" stroke-width="2"/>
<path d="M23.9932 12.001H24.0839C26.2708 12.001 28.3173 12.6137 30.0702 13.6802L30.0166 13.6492C31.8417 14.7427 33.3195 16.257 34.3564 18.0692L34.3866 18.1272C35.4011 19.8954 36 22.0214 36 24.2904C36 29.6939 32.6025 34.2858 27.8774 35.943L27.7926 35.969C27.7311 35.989 27.6609 36 27.5887 36C27.4307 36 27.2843 35.946 27.1663 35.8561L27.1683 35.8571C27.0434 35.7421 26.9654 35.5762 26.9654 35.3913C26.9654 35.3863 26.9654 35.3813 26.9654 35.3773V35.3783C26.9654 35.3463 26.968 34.9378 26.9732 34.1528C26.9784 33.3679 26.981 32.6502 26.981 31.9998C26.9878 31.9249 26.9917 31.8389 26.9917 31.7509C26.9917 30.9593 26.6766 30.2436 26.1684 29.7269C26.7713 29.6659 27.3156 29.564 27.8443 29.422L27.7701 29.439C28.3291 29.2791 28.8168 29.0662 29.2694 28.7973L29.2391 28.8143C29.7347 28.5344 30.1541 28.1786 30.4994 27.7568L30.5053 27.7498C30.8681 27.274 31.152 26.7143 31.3247 26.1055L31.3334 26.0706C31.5373 25.3879 31.6544 24.6032 31.6544 23.7906C31.6544 23.7456 31.6544 23.6996 31.6534 23.6547V23.6617C31.6534 23.6397 31.6544 23.6147 31.6544 23.5897C31.6544 22.3423 31.1842 21.2078 30.4165 20.3612L30.4194 20.3642C30.5833 19.9244 30.6779 19.4166 30.6779 18.8858C30.6779 18.2371 30.5365 17.6234 30.2839 17.0727L30.2946 17.0987C30.1824 17.0767 30.0546 17.0637 29.9229 17.0637C29.5971 17.0637 29.2899 17.1416 29.0167 17.2796L29.0284 17.2746C28.4744 17.4845 28.0003 17.7224 27.5536 18.0003L27.5906 17.9783L26.9966 18.3621C26.0972 18.0982 25.0642 17.9463 23.9971 17.9463C22.9299 17.9463 21.8969 18.0982 20.9176 18.3821L20.9966 18.3621C20.8301 18.2448 20.6087 18.1005 20.3323 17.9293C19.9685 17.7154 19.5383 17.5085 19.0915 17.3346L19.0271 17.3126C18.7413 17.1586 18.4029 17.0687 18.0429 17.0687C17.922 17.0687 17.803 17.0787 17.6879 17.0987L17.7005 17.0967C17.4586 17.6204 17.3172 18.2351 17.3172 18.8838C17.3172 19.4146 17.4118 19.9234 17.5854 20.3922L17.5757 20.3632C16.8099 21.2068 16.3408 22.3413 16.3408 23.5887C16.3408 23.6137 16.3408 23.6397 16.3417 23.6647V23.6607C16.3408 23.6996 16.3408 23.7446 16.3408 23.7906C16.3408 24.5992 16.4578 25.3809 16.6763 26.1165L16.6617 26.0596C16.846 26.7023 17.126 27.261 17.4908 27.7518L17.482 27.7388C17.8273 28.1736 18.2448 28.5314 18.7179 28.8003L18.7394 28.8113C19.1608 29.0632 19.6495 29.2761 20.1636 29.425L20.2084 29.436C20.663 29.561 21.2073 29.6629 21.7643 29.7199L21.8091 29.7239C21.3887 30.1517 21.1088 30.7234 21.0444 31.3611L21.0434 31.3731C20.8415 31.4741 20.6064 31.556 20.3616 31.609L20.3411 31.613C20.0914 31.664 19.8056 31.693 19.5119 31.693C19.4905 31.693 19.469 31.693 19.4476 31.693H19.4505C19.0662 31.685 18.7131 31.557 18.4214 31.3451L18.4272 31.3491C18.0654 31.0903 17.7727 30.7544 17.5679 30.3636L17.561 30.3486C17.3679 30.0127 17.1133 29.7349 16.8119 29.522L16.8031 29.516C16.5836 29.3471 16.3252 29.2151 16.0462 29.1361L16.0306 29.1321L15.7184 29.0842C15.696 29.0822 15.6696 29.0812 15.6433 29.0812C15.5067 29.0812 15.377 29.1092 15.259 29.1581L15.2658 29.1551C15.1826 29.2031 15.1566 29.2644 15.1878 29.3391C15.2258 29.425 15.2726 29.499 15.3292 29.5639L15.3282 29.563C15.3877 29.6349 15.455 29.6979 15.5282 29.7529L15.5311 29.7549L15.6404 29.8348C15.9164 29.9828 16.1437 30.1887 16.3164 30.4376L16.3203 30.4435C16.5066 30.6804 16.6705 30.9483 16.8021 31.2352L16.8119 31.2592L16.968 31.627C17.0997 32.0288 17.3386 32.3647 17.6508 32.6076L17.6557 32.6116C17.9483 32.8454 18.3014 33.0134 18.6867 33.0893L18.7023 33.0913C19.0242 33.1553 19.3988 33.1953 19.7812 33.2033H19.788C19.8319 33.2053 19.8826 33.2053 19.9343 33.2053C20.1889 33.2053 20.4386 33.1843 20.6825 33.1433L20.6562 33.1473L21.0151 33.0833C21.0151 33.4892 21.0177 33.9616 21.0229 34.5007C21.0281 35.0398 21.0307 35.3306 21.0307 35.3733V35.3873C21.0307 35.5722 20.9527 35.7381 20.8278 35.8531C20.7118 35.942 20.5654 35.996 20.4064 35.996C20.3333 35.996 20.263 35.985 20.1977 35.964L20.2026 35.965C15.3946 34.2768 12 29.6849 12 24.2804C12 22.0134 12.597 19.8894 13.6397 18.0642L13.6085 18.1222C14.6757 16.2521 16.1535 14.7377 17.922 13.6752L17.9785 13.6442C19.6748 12.6107 21.7194 12 23.9025 12H23.998H23.9932V12.001ZM16.5407 29.6589C16.5719 29.5843 16.5355 29.5203 16.4315 29.467C16.3274 29.435 16.2598 29.4457 16.2286 29.499C16.1974 29.5736 16.2338 29.6376 16.3378 29.6909C16.4315 29.7549 16.4991 29.7442 16.5407 29.6589ZM17.0255 30.2037C17.0984 30.1503 17.088 30.0651 16.9943 29.9478C16.8903 29.8518 16.807 29.8358 16.7446 29.8998C16.6718 29.9531 16.6822 30.0384 16.7758 30.1557C16.8792 30.2603 16.9624 30.276 17.0255 30.2027V30.2037ZM17.4937 30.9233C17.5874 30.8487 17.5874 30.7474 17.4937 30.6195C17.4105 30.4809 17.3221 30.4489 17.2284 30.5235C17.1348 30.5768 17.1348 30.6728 17.2284 30.8114C17.3221 30.95 17.4105 30.9873 17.4937 30.9233ZM18.1492 31.596C18.2325 31.5107 18.2117 31.4094 18.0868 31.2922C17.962 31.1642 17.8579 31.1482 17.7747 31.2442C17.681 31.3295 17.7018 31.4308 17.8371 31.548C17.962 31.676 18.066 31.6906 18.1492 31.592V31.596ZM19.0398 31.9958C19.071 31.8786 19.0034 31.7933 18.8369 31.74C18.6809 31.6973 18.582 31.7346 18.5404 31.8519C18.4988 31.9692 18.5664 32.0491 18.7433 32.0918C18.8994 32.1564 18.9982 32.1244 19.0398 31.9958ZM20.0241 32.0758C20.0241 31.9372 19.9356 31.8786 19.7587 31.8999C19.5923 31.8999 19.509 31.9585 19.509 32.0758C19.509 32.2144 19.5975 32.273 19.7743 32.2517C19.9408 32.2524 20.0241 32.1931 20.0241 32.0758ZM20.9303 31.9159C20.9094 31.7986 20.8158 31.7506 20.6493 31.7719C20.4828 31.8039 20.41 31.8839 20.4308 32.0118C20.4516 32.1398 20.5453 32.1824 20.7118 32.1398C20.8782 32.0971 20.9504 32.0225 20.9303 31.9159Z" fill="white"/>
</svg>
