<svg width="48" height="48" viewBox="0 0 48 48" fill="none" xmlns="http://www.w3.org/2000/svg">
<rect x="1" y="1" width="46" height="46" rx="23" stroke="white" stroke-width="2"/>
<path d="M24.0011 12C20.7421 12 20.3331 12.0142 19.0531 12.0725C17.7756 12.131 16.9036 12.3332 16.1405 12.63C15.3513 12.9365 14.6818 13.3465 14.0148 14.0137C13.3473 14.6808 12.9373 15.3502 12.6298 16.1393C12.3322 16.9025 12.1297 17.7747 12.0723 19.0518C12.015 20.3317 12 20.741 12 24C12 27.259 12.0145 27.6667 12.0725 28.9467C12.1313 30.2242 12.3335 31.0963 12.63 31.8593C12.9368 32.6485 13.3468 33.318 14.014 33.985C14.6808 34.6525 15.3503 35.0635 16.139 35.37C16.9025 35.6667 17.7748 35.869 19.0521 35.9275C20.3321 35.9857 20.7408 36 23.9996 36C27.2589 36 27.6667 35.9858 28.9467 35.9275C30.2242 35.869 31.0972 35.6668 31.8607 35.37C32.6497 35.0635 33.3182 34.6525 33.985 33.985C34.6525 33.318 35.0625 32.6485 35.37 31.8595C35.665 31.0963 35.8675 30.224 35.9275 28.947C35.985 27.667 36 27.259 36 24C36 20.741 35.985 20.332 35.9275 19.052C35.8675 17.7745 35.665 16.9025 35.37 16.1395C35.0625 15.3502 34.6525 14.6807 33.985 14.0137C33.3175 13.3462 32.65 12.9362 31.86 12.63C31.0949 12.3333 30.2224 12.131 28.9449 12.0725C27.6649 12.0142 27.2574 12 23.9974 12H24.0011ZM22.9246 14.161C22.9246 14.1618 22.9253 14.1625 22.9261 14.1625C23.2452 14.162 23.6012 14.1625 24.0011 14.1625C27.2052 14.1625 27.5849 14.174 28.8502 14.2315C30.0202 14.285 30.6552 14.4805 31.0782 14.6447C31.6382 14.8622 32.0375 15.1223 32.4572 15.5422C32.8772 15.9623 33.1372 16.3623 33.3552 16.9222C33.5195 17.3447 33.7152 17.9797 33.7685 19.1498C33.826 20.4147 33.8385 20.7948 33.8385 23.9973C33.8385 27.1997 33.826 27.5798 33.7685 28.8448C33.715 30.0147 33.5195 30.6498 33.3552 31.0723C33.1377 31.6323 32.8772 32.031 32.4572 32.4507C32.0372 32.8708 31.6384 33.1307 31.0782 33.3482C30.6557 33.5133 30.0202 33.7082 28.8502 33.7618C27.5852 33.8192 27.2052 33.8317 24.0011 33.8317C20.7968 33.8317 20.4171 33.8192 19.1521 33.7618C17.9821 33.7078 17.3471 33.5123 16.9238 33.348C16.3638 33.1305 15.9638 32.8705 15.5438 32.4505C15.1238 32.0305 14.8638 31.6315 14.6458 31.0712C14.4815 30.6488 14.2858 30.0137 14.2325 28.8438C14.175 27.5787 14.1635 27.1988 14.1635 23.9943C14.1635 20.7898 14.175 20.4117 14.2325 19.1468C14.286 17.9767 14.4815 17.3418 14.6458 16.9188C14.8633 16.3588 15.1238 15.9588 15.5438 15.5388C15.9638 15.1187 16.3638 14.8588 16.9238 14.6408C17.3468 14.4757 17.9821 14.2808 19.1521 14.227C20.2588 14.177 20.6879 14.162 22.9231 14.1595C22.9239 14.1595 22.9246 14.1602 22.9246 14.161ZM30.4067 16.1548C30.4067 16.1549 30.4066 16.155 30.4065 16.155C29.6116 16.1551 28.9667 16.7993 28.9667 17.5945C28.9667 18.3895 29.6117 19.0345 30.4067 19.0345C31.2017 19.0345 31.8467 18.3895 31.8467 17.5945C31.8467 16.7996 31.2018 16.1546 30.4069 16.1545C30.4068 16.1545 30.4067 16.1546 30.4067 16.1548ZM24.0011 17.8375C20.5978 17.8375 17.8386 20.5967 17.8386 24C17.8386 27.4033 20.5978 30.1612 24.0011 30.1612C27.4044 30.1612 30.1627 27.4033 30.1627 24C30.1627 20.5967 27.4042 17.8375 24.0009 17.8375H24.0011ZM24.0011 20C26.2101 20 28.0012 21.7908 28.0012 24C28.0012 26.209 26.2101 28 24.0011 28C21.7919 28 20.0011 26.209 20.0011 24C20.0011 21.7908 21.7919 20 24.0011 20Z" fill="white"/>
</svg>
