<svg width="48" height="48" viewBox="0 0 48 48" fill="none" xmlns="http://www.w3.org/2000/svg">
<rect x="1" y="1" width="46" height="46" rx="23" stroke="white" stroke-width="2"/>
<path fill-rule="evenodd" clip-rule="evenodd" d="M34 34H29.8906V27.0008C29.8906 25.0818 29.1615 24.0094 27.6426 24.0094C25.9902 24.0094 25.127 25.1254 25.127 27.0008V34H21.1667V20.6667H25.127V22.4627C25.127 22.4627 26.3177 20.2593 29.1471 20.2593C31.9753 20.2593 34 21.9863 34 25.5582V34ZM16.4421 18.9208C15.0931 18.9208 14 17.8191 14 16.4604C14 15.1017 15.0931 14 16.4421 14C17.791 14 18.8835 15.1017 18.8835 16.4604C18.8835 17.8191 17.791 18.9208 16.4421 18.9208ZM14.3971 34H18.5267V20.6667H14.3971V34Z" fill="white"/>
</svg>
