<svg width="48" height="48" viewBox="0 0 48 48" fill="none" xmlns="http://www.w3.org/2000/svg">
<path d="M3.31879 22.9362C3.69099 23.0169 17.284 29.7434 17.663 30.0694C18.0882 31.2265 18.5631 32.0284 19.7054 32.6203C20.1913 32.8721 20.9441 33.0046 21.4871 33.0123C22.8807 33.0322 24.2765 33.0146 25.6702 33.0184C26.3439 33.0188 27.1084 33.0338 27.7525 32.8243C28.7112 32.5109 29.5082 31.8329 29.9712 30.9368C30.1417 30.6075 30.244 30.283 30.4154 29.945C35.1815 27.6356 39.931 25.1436 44.7069 22.8762L44.7115 33.3457L44.7144 37.0528C44.7148 38.0726 44.8004 39.5958 44.5386 40.5542C44.0795 42.2354 42.4536 43.3391 40.7335 43.3619C39.1417 43.3829 37.5261 43.3781 35.9197 43.3773L26.834 43.377L13.3891 43.3777L9.71783 43.38C8.67782 43.3808 7.04449 43.449 6.09763 43.181C5.10231 42.8948 4.26186 42.2241 3.7619 41.3172C3.35415 40.5858 3.28766 39.8528 3.28362 39.0259C3.27846 37.97 3.2816 36.9138 3.28127 35.8579L3.28094 28.8055L3.28189 24.7689C3.28196 24.497 3.26288 23.1321 3.31879 22.9362Z" fill="#F5F5F5"/>
<path d="M21.2521 27.8784C22.6205 27.7991 24.0603 27.8917 25.4355 27.8551C25.8838 27.8432 26.7533 27.8287 27.1427 28.0129C27.4489 28.1605 27.6831 28.4248 27.793 28.7465C28.074 29.5657 27.539 30.1947 26.7889 30.4478C26.0341 30.5299 24.8534 30.4905 24.0734 30.4893C23.288 30.488 21.3399 30.6112 20.7578 30.2621C20.4634 30.0873 20.2516 29.8015 20.1702 29.4689C19.978 28.6648 20.4861 28.0552 21.2521 27.8784Z" fill="#F5F5F5"/>
<path d="M13.6111 9.81225L14.5161 7.10058C14.7059 6.5266 15.1163 4.88693 15.7867 4.75837C16.6894 4.58527 17.8736 4.6541 18.8097 4.65486L23.062 4.65558L28.0472 4.65525C28.8461 4.65453 31.5315 4.5394 32.1562 4.76129C32.57 4.90827 32.7574 5.16204 32.9387 5.54614C33.2036 6.10761 33.3662 6.76315 33.5623 7.35465C33.8286 8.15821 34.1333 8.96456 34.361 9.77916C35.117 9.83172 35.9284 9.81354 36.6914 9.81272L40.0979 9.80993C42.0217 9.80911 43.7104 9.60196 45.0865 11.2038C45.6597 11.871 45.6975 12.3386 46 13.1087V18.8384C45.8604 19.0872 45.6988 19.4092 45.459 19.5647C44.9971 19.8643 44.4489 20.1153 43.9539 20.3602L41.5015 21.5758L33.8335 25.3878C32.6944 25.9542 31.0217 26.7238 29.9642 27.3222C29.3627 26.4269 28.6123 25.6446 27.5071 25.4277C26.6204 25.2536 21.513 25.2578 20.5732 25.4209C20.1103 25.5013 19.6979 25.6749 19.3084 25.9358C18.7641 26.3001 18.3938 26.7645 18.0444 27.3097C14.6072 25.6821 11.0545 23.8433 7.64214 22.1478L4.30317 20.4911C3.71172 20.1979 3.06685 19.9024 2.50362 19.561C2.26244 19.4147 2.13889 19.0801 2 18.8805V13.0072L2.0173 12.9773C2.15018 12.7426 2.28398 12.2721 2.42233 11.9714C2.87363 11.0068 3.72153 10.2857 4.74608 9.99513C5.70583 9.71432 7.41982 9.82493 8.48184 9.81066C10.1778 9.78789 11.9142 9.83765 13.6111 9.81225ZM16.331 9.81689L30.7783 9.81156C31.0547 9.81414 31.3787 9.80967 31.6506 9.8257L30.8187 7.28156L20.9744 7.28131L18.6661 7.28805C18.2815 7.29235 17.5435 7.33497 17.2081 7.27069C16.8864 8.07666 16.6366 9.09106 16.331 9.81689Z" fill="#F5F5F5"/>
</svg>
