<svg width="48" height="48" viewBox="0 0 48 48" fill="none" xmlns="http://www.w3.org/2000/svg">
<rect x="0.75" y="0.75" width="46.5" height="46.5" rx="23.25" stroke="#F5F5F5" stroke-width="1.5"/>
<path d="M14.2237 30V18.3636H18.3714C19.273 18.3636 20.0211 18.5189 20.6158 18.8295C21.2143 19.1402 21.6612 19.5701 21.9567 20.1193C22.2521 20.6648 22.3999 21.2955 22.3999 22.0114C22.3999 22.7235 22.2502 23.3504 21.951 23.892C21.6555 24.4299 21.2086 24.8485 20.6101 25.1477C20.0154 25.447 19.2673 25.5966 18.3658 25.5966H15.2237V24.0852H18.2067C18.7749 24.0852 19.237 24.0038 19.593 23.8409C19.9529 23.678 20.2161 23.4413 20.3828 23.1307C20.5495 22.8201 20.6328 22.447 20.6328 22.0114C20.6328 21.572 20.5476 21.1913 20.3771 20.8693C20.2105 20.5473 19.9472 20.3011 19.5874 20.1307C19.2313 19.9564 18.7635 19.8693 18.1839 19.8693H15.9794V30H14.2237ZM19.968 24.75L22.843 30H20.843L18.0249 24.75H19.968ZM32.0192 18.3636H33.7805V26.017C33.7805 26.8314 33.5893 27.553 33.2067 28.1818C32.8241 28.8068 32.2862 29.2992 31.593 29.6591C30.8999 30.0152 30.0874 30.1932 29.1555 30.1932C28.2275 30.1932 27.4169 30.0152 26.7237 29.6591C26.0305 29.2992 25.4927 28.8068 25.1101 28.1818C24.7275 27.553 24.5362 26.8314 24.5362 26.017V18.3636H26.2919V25.875C26.2919 26.4015 26.4074 26.8693 26.6385 27.2784C26.8733 27.6875 27.2048 28.0095 27.6328 28.2443C28.0608 28.4754 28.5684 28.5909 29.1555 28.5909C29.7464 28.5909 30.2559 28.4754 30.6839 28.2443C31.1158 28.0095 31.4453 27.6875 31.6726 27.2784C31.9036 26.8693 32.0192 26.4015 32.0192 25.875V18.3636Z" fill="#F5F5F5"/>
</svg>
