<svg width="48" height="48" viewBox="0 0 48 48" fill="none" xmlns="http://www.w3.org/2000/svg">
<rect x="1" y="1" width="46" height="46" rx="23" stroke="white" stroke-width="2"/>
<path d="M31.3848 17.1327C31.2213 17.049 31.0621 16.9572 30.9079 16.8578C30.4593 16.564 30.048 16.2179 29.6828 15.8268C28.7692 14.7914 28.428 13.7409 28.3023 13.0054H28.3073C28.2024 12.395 28.2458 12 28.2523 12H24.0911V27.9382C24.0911 28.1522 24.0911 28.3637 24.082 28.5727C24.082 28.5987 24.0795 28.6227 24.078 28.6507C24.078 28.6622 24.078 28.6742 24.0755 28.6862C24.0755 28.6892 24.0755 28.6922 24.0755 28.6952C24.0316 29.267 23.8465 29.8194 23.5365 30.3038C23.2265 30.7882 22.8011 31.1897 22.2977 31.473C21.773 31.7687 21.1796 31.9238 20.576 31.923C18.6372 31.923 17.0659 30.3571 17.0659 28.4232C17.0659 26.4893 18.6372 24.9234 20.576 24.9234C20.943 24.923 21.3077 24.9802 21.6567 25.0928L21.6617 20.8961C20.6024 20.7605 19.5262 20.8439 18.5011 21.141C17.476 21.438 16.5241 21.9423 15.7056 22.622C14.9883 23.2392 14.3854 23.9758 13.9238 24.7984C13.7481 25.0983 13.0854 26.3038 13.0051 28.2602C12.9546 29.3706 13.2913 30.5211 13.4518 30.9966V31.0066C13.5528 31.2865 13.944 32.242 14.5815 33.0474C15.0955 33.6936 15.7029 34.2611 16.384 34.7319V34.7219L16.394 34.7319C18.4085 36.0878 20.6421 35.9988 20.6421 35.9988C21.0287 35.9833 22.3239 35.9988 23.7948 35.3083C25.4262 34.5429 26.3549 33.4024 26.3549 33.4024C26.9483 32.721 27.4201 31.9444 27.7501 31.106C28.1266 30.1256 28.2523 28.9497 28.2523 28.4797V20.0241C28.3028 20.0541 28.9751 20.4946 28.9751 20.4946C28.9751 20.4946 29.9438 21.1095 31.455 21.51C32.5392 21.795 34 21.855 34 21.855V17.7632C33.4882 17.8182 32.4489 17.6582 31.3848 17.1327Z" fill="white"/>
</svg>
