<svg width="48" height="48" viewBox="0 0 48 48" fill="none" xmlns="http://www.w3.org/2000/svg">
<rect x="1" y="1" width="46" height="46" rx="23" stroke="white" stroke-width="2"/>
<path d="M30.5237 18C27.4506 18 25.7303 20.1507 25.2378 22.3649C24.6797 21.2367 24.2659 19.7276 23.9442 18.3244H19.6959V24.0008C19.6959 26.0599 18.8225 27.583 17.1153 27.583C15.408 27.583 14.4296 26.0599 14.4296 24.0008L14.4493 18.3244H12V24.0008C12 25.658 12.4991 27.16 13.4118 28.2318C14.3507 29.3389 15.6312 29.9171 17.1152 29.9171C20.07 29.9171 22.1319 27.4843 22.1319 24.0008V20.186C22.4405 21.4412 23.1759 23.8528 24.5811 25.9683L23.2679 34H25.7565L26.6232 28.3094C26.9056 28.5633 27.2077 28.7889 27.5294 28.9934C28.3633 29.5575 29.3155 29.8749 30.3004 29.9101C30.3004 29.9101 30.4515 29.9171 30.5303 29.9171C33.577 29.9171 36 27.3857 36 23.9657C36 20.5456 33.5705 18.0001 30.5237 18.0001M30.5237 27.5761C28.6391 27.5761 27.3915 26.0106 27.0435 25.4042C27.49 21.5681 28.7967 20.3553 30.5237 20.3553C32.2309 20.3553 33.5573 21.822 33.5573 23.9657C33.5573 26.1093 32.2309 27.5761 30.5237 27.5761Z" fill="white"/>
</svg>
