<svg width="48" height="48" viewBox="0 0 48 48" fill="none" xmlns="http://www.w3.org/2000/svg">
<rect x="1" y="1" width="46" height="46" rx="23" stroke="#F5F5F5" stroke-width="2"/>
<path fill-rule="evenodd" clip-rule="evenodd" d="M32.5033 15.4877C30.2472 13.2398 27.2468 12.0013 24.0501 12C17.4635 12 12.1028 17.3346 12.1002 23.8918C12.0993 25.9878 12.6496 28.0338 13.6953 29.8373L12 36L18.3348 34.3463C20.0802 35.2937 22.0453 35.793 24.0453 35.7938H24.0502C30.6362 35.7938 35.9973 30.4585 36 23.9013C36.0013 20.7236 34.7595 17.7356 32.5033 15.4877ZM24.0502 33.7852H24.0462C22.264 33.7845 20.5159 33.308 18.991 32.4074L18.6283 32.1932L14.8692 33.1746L15.8726 29.527L15.6364 29.153C14.6422 27.5792 14.117 25.7602 14.1178 23.8925C14.12 18.4425 18.5756 14.0086 24.0542 14.0086C26.707 14.0096 29.2008 15.0391 31.0761 16.9075C32.9513 18.7758 33.9834 21.2593 33.9824 23.9005C33.9801 29.3509 29.5246 33.7852 24.0502 33.7852ZM29.4983 26.3822C29.1997 26.2334 27.7317 25.5145 27.458 25.4154C27.1843 25.3162 26.9853 25.2666 26.7862 25.5641C26.5872 25.8616 26.0149 26.5309 25.8407 26.7292C25.6666 26.9276 25.4924 26.9524 25.1938 26.8036C24.8952 26.6549 23.9332 26.3411 22.7927 25.3287C21.9051 24.5409 21.3058 23.5677 21.1316 23.2702C20.9575 22.9727 21.1131 22.8119 21.2626 22.6637C21.3969 22.5306 21.5611 22.3167 21.7104 22.1431C21.8597 21.9696 21.9095 21.8457 22.009 21.6474C22.1085 21.449 22.0588 21.2755 21.9841 21.1268C21.9095 20.978 21.3124 19.5154 21.0635 18.9204C20.8212 18.341 20.575 18.4194 20.3917 18.4103C20.2177 18.4017 20.0185 18.3999 19.8195 18.3999C19.6204 18.3999 19.2969 18.4743 19.0232 18.7717C18.7495 19.0692 17.9782 19.7881 17.9782 21.2507C17.9782 22.7133 19.0481 24.1263 19.1974 24.3246C19.3467 24.523 21.3029 27.5245 24.2981 28.8116C25.0105 29.1178 25.5666 29.3006 26.0003 29.4376C26.7156 29.6637 27.3665 29.6318 27.881 29.5553C28.4546 29.47 29.6475 28.8364 29.8964 28.1423C30.1452 27.4482 30.1452 26.8532 30.0705 26.7293C29.9959 26.6053 29.7968 26.5309 29.4983 26.3822Z" fill="#F5F5F5"/>
</svg>
