<svg width="48" height="48" viewBox="0 0 48 48" fill="none" xmlns="http://www.w3.org/2000/svg">
<rect x="1" y="1" width="46" height="46" rx="23" stroke="white" stroke-width="2"/>
<path d="M21.5446 27.375V20.6273L27.8173 24.0015L21.5446 27.375ZM35.4967 18.5032C35.2134 17.5187 34.4132 16.7575 33.3962 16.4881L33.3746 16.4835C30.8196 16.1763 27.8645 16.0008 24.8654 16.0008C24.5605 16.0008 24.2565 16.0023 23.9532 16.0061L23.9996 16.0053C23.7419 16.0023 23.4387 16 23.1338 16C20.1347 16 17.178 16.1756 14.2757 16.5153L14.623 16.482C13.5852 16.7567 12.785 17.5172 12.5073 18.482L12.5025 18.5017C12.1824 20.0976 12 21.9342 12 23.8108C12 23.8774 12 23.944 12.0008 24.0098V23.9992C12.0008 24.0552 12 24.1218 12 24.1884C12 26.0651 12.1832 27.9009 12.5329 29.6814L12.5025 29.4968C12.7858 30.4813 13.586 31.2425 14.603 31.5119L14.6246 31.5165C17.1796 31.8237 20.1347 31.9992 23.1338 31.9992C23.4379 31.9992 23.7419 31.9977 24.046 31.9939L23.9996 31.9947C24.2573 31.9977 24.5613 32 24.8654 32C27.8653 32 30.8212 31.8244 33.7235 31.4847L33.3762 31.518C34.4148 31.244 35.215 30.4828 35.4935 29.518L35.4983 29.4983C35.8176 27.9024 36 26.0658 36 24.1899C36 24.1233 36 24.0568 35.9992 23.9909V24.0008C35.9992 23.9448 36 23.8782 36 23.8116C36 21.9349 35.8168 20.0991 35.4671 18.3186L35.4967 18.5032Z" fill="white"/>
</svg>
