<svg width="48" height="48" viewBox="0 0 48 48" fill="none" xmlns="http://www.w3.org/2000/svg">
<mask id="mask0_774_344" style="mask-type:luminance" maskUnits="userSpaceOnUse" x="2" y="0" width="44" height="48">
<path d="M45.4901 23.133C45.4901 26.7139 45.4846 30.295 45.4946 33.876C45.4969 34.6245 45.2011 35.1771 44.5715 35.5689C41.7656 37.3154 38.9656 39.0707 36.1564 40.811C32.8181 42.8789 29.4733 44.9361 26.1299 46.9962C25.6874 47.2686 25.238 47.5304 24.7943 47.8005C24.3412 48.0762 23.9119 48.0399 23.462 47.7664C20.1802 45.7683 16.8899 43.7847 13.6086 41.7859C10.2637 39.7488 6.92772 37.6971 3.58335 35.6582C2.85999 35.2173 2.51172 34.5938 2.51227 33.7472C2.51674 26.6598 2.51785 19.572 2.51172 12.4848C2.51116 11.5806 2.85888 10.9583 3.69162 10.5252C7.54279 8.51976 11.3755 6.47864 15.2134 4.44757C17.8294 3.06339 20.4419 1.6725 23.0575 0.287757C23.6495 -0.0259174 24.2407 -0.0186614 24.8395 0.294455C27.2312 1.54692 29.6278 2.79045 32.0206 4.04068C36.1564 6.20181 40.2895 8.36794 44.4257 10.5268C45.1295 10.8941 45.484 11.4667 45.4852 12.2509C45.4891 15.8783 45.4868 19.5056 45.4868 23.133H45.4901ZM33.7732 17.4538C33.6029 17.3613 33.4985 17.3037 33.3931 17.2474C32.5346 16.7875 31.6768 16.3271 30.8173 15.8694C30.58 15.7433 30.4103 15.5757 30.4187 15.2854C30.4265 15.0036 30.6415 14.9127 30.8495 14.7983C31.1471 14.6347 31.453 14.4706 31.7119 14.2552C31.9492 14.0576 31.9375 13.7897 31.7203 13.572C31.5857 13.4375 31.4239 13.3052 31.2493 13.2411C30.9305 13.1238 30.5962 13.0027 30.263 12.9826C29.4805 12.9358 28.7371 13.0842 28.1951 13.7205C27.8323 14.1464 27.6191 14.2083 27.1168 13.9432C26.1412 13.4275 25.1683 12.9062 24.1882 12.3983C24.0934 12.3492 23.9332 12.3358 23.8427 12.3821C22.871 12.8861 21.8975 13.3873 20.9471 13.9292C20.543 14.1592 20.1455 14.1039 19.8464 13.754C19.1186 12.9023 17.605 12.6701 16.5445 13.4163C16.1387 13.7021 16.1309 14.0548 16.5334 14.3428C16.7939 14.5292 17.0971 14.6598 17.389 14.7988C17.6033 14.9004 17.7824 15.0232 17.7997 15.2776C17.8175 15.5455 17.6518 15.7035 17.4347 15.8208C17.0345 16.0368 16.6343 16.2522 16.2353 16.4699C15.6179 16.8065 15.0017 17.1453 14.3616 17.4957C14.4302 17.5427 14.4715 17.5755 14.5173 17.6013C17.6696 19.3968 20.8216 21.1929 23.9777 22.9817C24.052 23.0241 24.1937 23.0219 24.2686 22.9784C26.8534 21.4797 29.4335 19.9734 32.015 18.4692C32.5816 18.1388 33.1504 17.8138 33.7732 17.4538ZM24.5053 35.1648C24.6995 35.047 24.8407 34.9616 24.9818 34.8756C25.8052 34.3722 26.629 33.8688 27.4516 33.3636C27.5974 33.2743 27.7396 33.1923 27.6296 32.9707C27.3395 32.3869 27.3295 31.763 27.4712 31.1484C27.7235 30.0551 28.3346 29.244 29.4448 28.9041C30.3796 28.6177 31.1459 29.085 31.3252 30.045C31.3832 30.357 31.3615 30.6846 31.3771 31.0312C31.4345 31.0021 31.4753 30.9859 31.5116 30.9631C32.3242 30.4596 33.1336 29.9506 33.9517 29.4561C34.1197 29.3545 34.166 29.2374 34.1644 29.051C34.156 28.0374 34.1594 27.0237 34.1621 26.0101C34.1621 25.8907 34.1689 25.7663 34.2029 25.6535C34.358 25.1429 34.6784 24.9207 35.3057 24.9078C35.7853 24.8983 36.1976 24.7476 36.5287 24.3988C37.0952 23.8015 37.2208 23.0833 37.0673 22.3047C36.959 21.7537 36.6559 21.607 36.1558 21.8698C35.812 22.0507 35.4934 22.2785 35.1623 22.4834C34.9558 22.6112 34.7504 22.7513 34.4948 22.595C34.2487 22.4442 34.1576 22.2226 34.1588 21.9391C34.1638 20.8138 34.1611 19.6887 34.1611 18.5635C34.1611 18.4741 34.1611 18.3843 34.1611 18.2655C34.0991 18.2939 34.0661 18.3051 34.0366 18.3224C30.9295 20.1408 27.8234 21.9609 24.7135 23.7749C24.5572 23.8658 24.4991 23.9617 24.4991 24.1459C24.5057 27.5494 24.5047 30.9531 24.5053 34.3572C24.5053 34.6073 24.5053 34.8567 24.5053 35.1648ZM23.6323 35.0576C23.6323 34.8875 23.6323 34.7875 23.6323 34.6875C23.6306 31.2288 23.6228 27.7706 23.6368 24.3117C23.6378 23.9668 23.5318 23.7859 23.2382 23.6185C20.6095 22.1244 17.9896 20.6141 15.3674 19.1094C14.9113 18.8475 14.4548 18.588 13.9513 18.3C13.9513 18.4513 13.9513 18.5494 13.9513 18.6477C13.9513 19.6981 13.9536 20.7492 13.9513 21.7995C13.9513 21.9285 13.9458 22.0619 13.9128 22.1853C13.8034 22.5944 13.3837 22.764 13.0204 22.5547C12.5951 22.3096 12.1843 22.0346 11.7417 21.827C11.3024 21.621 10.9871 21.8202 10.9396 22.298C10.9134 22.5632 10.9179 22.835 10.9424 23.1006C11.0323 24.0707 11.7523 24.9447 12.8959 24.9051C13.5445 24.8827 13.953 25.3215 13.9536 25.9673C13.9536 26.9993 13.9575 28.0312 13.9491 29.0632C13.948 29.2335 14.0005 29.3306 14.1467 29.4176C14.7294 29.7626 15.3043 30.1209 15.8825 30.4736C16.1644 30.6455 16.4468 30.8169 16.7504 31.0015C16.7504 30.7375 16.7455 30.5104 16.7515 30.2833C16.7761 29.3635 17.4794 28.6994 18.3094 28.8221C19.2928 28.9683 19.991 29.5248 20.4475 30.3865C20.8706 31.1853 20.8907 32.0218 20.5894 32.8647C20.5045 33.1014 20.5424 33.2426 20.774 33.3564C21.0146 33.4748 21.239 33.6259 21.47 33.7638C22.1689 34.1808 22.8676 34.5989 23.6339 35.0565L23.6323 35.0576ZM44.2505 11.4997C43.6171 11.1614 43.0544 10.8578 42.4891 10.5598C39.7336 9.10971 36.9775 7.66078 34.2179 6.21799C34.1387 6.17668 34.0009 6.17668 33.9211 6.21799C32.9471 6.71752 31.9709 7.21371 31.0136 7.74339C30.5867 7.98003 30.2083 8.03976 29.7635 7.79195C29.1574 7.45482 28.4926 7.38226 27.8212 7.55362C27.5761 7.61613 27.3322 7.73669 27.1256 7.88403C26.8165 8.10506 26.8009 8.42934 27.0805 8.69C27.268 8.86469 27.5014 8.98915 27.7117 9.14041C27.8239 9.22078 27.9556 9.29111 28.0333 9.39827C28.2296 9.66953 28.1281 9.97036 27.7642 10.1785C27.3299 10.4275 26.8835 10.6546 26.4415 10.8902C25.9301 11.1631 25.4177 11.4355 24.8741 11.7252C24.9914 11.7938 25.0739 11.8479 25.1615 11.8932C25.8029 12.2275 26.4554 12.5428 27.0827 12.9012C27.3562 13.0574 27.5309 13.0424 27.7843 12.8515C29.0015 11.9328 30.7034 11.8518 31.9502 12.602C33.0604 13.2695 33.0431 14.6883 31.9184 15.2386C31.8733 15.261 31.837 15.3 31.7767 15.3463C31.862 15.396 31.9229 15.4346 31.9865 15.468C32.6083 15.8001 33.2356 16.1211 33.8507 16.4649C34.7258 16.9543 34.7141 16.9482 35.5933 16.4432C38.0702 15.0188 40.5539 13.6055 43.0349 12.189C43.4189 11.9696 43.804 11.7525 44.2505 11.4997ZM10.5456 28.1556C10.5456 28.3666 10.5523 28.5146 10.5445 28.6619C10.4903 29.7336 9.64306 30.3492 8.60158 30.0986C7.33348 29.7938 6.04027 28.0848 6.6118 26.3623C6.76195 25.9102 6.71898 25.8087 6.31543 25.5716C5.4358 25.0541 4.55619 24.5373 3.67543 24.0214C3.6012 23.9779 3.52195 23.9439 3.41479 23.891C3.41479 24.0249 3.41479 24.1075 3.41479 24.1906C3.41479 27.3151 3.43041 30.4401 3.40306 33.564C3.39693 34.2477 3.65869 34.6653 4.2252 35.0062C7.11916 36.7494 9.99972 38.5142 12.8859 40.2701C12.9294 40.2963 12.983 40.3063 13.0561 40.3326C13.0561 40.1863 13.0561 40.067 13.0561 39.9476C13.0561 39.1014 13.05 38.2552 13.0572 37.4091C13.0622 36.8565 13.5344 36.5718 14.0222 36.8292C14.4319 37.0452 14.8215 37.3002 15.2335 37.5112C15.6944 37.7473 16.0093 37.5642 16.0739 37.0501C16.2308 35.8077 15.3875 34.7636 14.1478 34.6647C13.4312 34.6077 13.0589 34.2115 13.0561 33.4897C13.0527 32.3551 13.0455 31.2204 13.0611 30.0863C13.065 29.8034 12.9886 29.6348 12.7335 29.4924C12.2072 29.1989 11.7026 28.8656 11.1891 28.5492C10.9938 28.4286 10.7984 28.3096 10.5456 28.1556ZM34.1498 30.3659C34.0936 30.3927 34.0612 30.4038 34.0327 30.4222C33.2423 30.9268 32.4493 31.4276 31.6639 31.9394C31.3871 32.1195 31.1024 32.2089 30.8044 32.037C30.5035 31.8634 30.3896 31.5781 30.421 31.2315C30.4466 30.9453 30.4807 30.6573 30.4739 30.3704C30.4612 29.8491 30.1223 29.6163 29.6273 29.7827C28.9307 30.0159 28.5416 30.5378 28.3576 31.2198C28.213 31.7562 28.2883 32.2797 28.487 32.7995C28.6913 33.333 28.5662 33.6706 28.0975 33.9994C28.0064 34.0635 27.9104 34.1205 27.815 34.1779C26.7886 34.7947 25.7638 35.4142 24.734 36.0243C24.5744 36.1192 24.4985 36.2191 24.4991 36.4167C24.5063 39.8487 24.5053 43.2807 24.5075 46.7127C24.5075 46.7707 24.5242 46.8288 24.5365 46.908C24.6253 46.8589 24.6911 46.8265 24.7531 46.788C27.8138 44.8893 30.8731 42.9876 33.9383 41.0955C34.1158 40.9861 34.1672 40.8723 34.165 40.6753C34.1549 39.8101 34.1611 38.9455 34.1599 38.0805C34.1599 38.0023 34.1504 37.9242 34.1432 37.8054C34.0019 37.8963 33.8981 37.9716 33.7865 38.0325C33.518 38.1781 33.2575 38.3478 32.9734 38.4528C32.2505 38.7195 31.5736 38.3925 31.3726 37.6501C31.2727 37.2823 31.2409 36.8794 31.2649 36.4981C31.3457 35.2099 32.4017 33.9603 33.7229 33.8308C34.0372 33.8001 34.1615 33.6561 34.1615 33.3386C34.1627 32.4176 34.1615 31.4967 34.1605 30.5763C34.1605 30.5149 34.1543 30.4535 34.1498 30.3659ZM23.0741 11.7547C22.7789 11.5996 22.5256 11.4667 22.2727 11.3333C21.5582 10.9577 20.8421 10.586 20.1305 10.2059C19.7828 10.02 19.6522 9.75045 19.804 9.48924C19.8815 9.35529 20.029 9.25315 20.1623 9.16161C20.3828 9.00924 20.6368 8.90097 20.8405 8.73073C21.148 8.47399 21.1525 8.14021 20.8294 7.90692C20.5966 7.73892 20.3096 7.61558 20.029 7.54916C19.2805 7.37279 18.5543 7.48218 17.8712 7.83995C17.5346 8.01632 17.222 8.02469 16.8704 7.83995C15.902 7.33037 14.9152 6.85539 13.943 6.35363C13.8057 6.28274 13.7152 6.29055 13.593 6.36032C13.3033 6.52608 13.0081 6.68237 12.7128 6.83808C9.85906 8.3445 7.0053 9.84924 4.15209 11.3568C4.04437 11.4137 3.95059 11.4969 3.82446 11.5856C3.94501 11.6582 4.02259 11.7078 4.10353 11.7525C5.82483 12.7036 7.5478 13.6524 9.26856 14.6052C10.6321 15.3597 11.9928 16.1199 13.3586 16.8706C13.4384 16.9141 13.5763 16.9349 13.6488 16.8953C14.5123 16.4253 15.3685 15.9425 16.2263 15.4619C16.2922 15.4251 16.3531 15.3804 16.3625 15.3743C16.0895 15.131 15.7625 14.935 15.5711 14.6487C15.1117 13.9605 15.359 13.1384 16.1158 12.6344C17.2684 11.8664 19.0394 11.9339 20.14 12.8169C20.4241 13.0446 20.6356 13.0915 20.9656 12.8939C21.6386 12.4915 22.3453 12.1443 23.0741 11.7547ZM37.5422 28.2204C36.7775 28.7033 36.0286 29.1814 35.2729 29.6475C35.1127 29.7463 35.0485 29.8536 35.0507 30.0466C35.0618 31.1902 35.0608 32.3344 35.0575 33.4786C35.0552 34.2009 34.7014 34.5915 33.9746 34.6676C32.7529 34.7954 32.0206 35.94 32.159 37.0842C32.2216 37.5988 32.5045 37.7261 32.9582 37.4694C33.2975 37.2774 33.6257 37.0664 33.964 36.8727C34.5244 36.5517 35.0485 36.8549 35.0518 37.5C35.0557 38.1698 35.054 38.8395 35.0546 39.5088C35.0546 39.7923 35.0546 40.0758 35.0546 40.4095C35.2031 40.3215 35.3053 40.2629 35.4056 40.2009C36.5281 39.5094 37.6528 38.8217 38.7718 38.1246C40.5211 37.0346 42.2636 35.9334 44.015 34.846C44.461 34.5693 44.6579 34.2003 44.6563 33.6713C44.6452 30.4904 44.6513 27.3095 44.6507 24.1293C44.6507 24.0528 44.639 23.9763 44.6306 23.8758C43.6204 24.4836 42.6419 25.0692 41.6675 25.6614C41.3683 25.8433 41.308 26.0085 41.4236 26.3389C41.9861 27.9525 40.8928 29.7285 39.3902 30.1131C38.5039 30.3396 37.7884 29.8998 37.6132 28.9991C37.5656 28.7552 37.5667 28.5023 37.5422 28.2204ZM23.6245 46.7992C23.6306 46.6915 23.6368 46.6284 23.6368 46.5654C23.6335 43.1535 23.6284 39.741 23.629 36.3291C23.629 36.1712 23.5832 36.0846 23.4425 36.0009C22.3418 35.3474 21.2435 34.6881 20.1529 34.0177C19.5802 33.6655 19.4663 33.2961 19.7075 32.6737C19.8671 32.2624 19.9865 31.8512 19.8721 31.403C19.6801 30.6489 19.2911 30.0583 18.5248 29.7927C17.989 29.6068 17.6452 29.8485 17.6401 30.415C17.6378 30.6918 17.6764 30.9697 17.7049 31.246C17.7377 31.5654 17.6702 31.8472 17.3816 32.0196C17.1071 32.1837 16.8308 32.1296 16.5668 31.9644C15.781 31.4711 14.9934 30.9804 14.2059 30.4893C14.1333 30.444 14.058 30.4034 13.9525 30.3431C13.9525 31.3829 13.9486 32.3679 13.9547 33.3531C13.9564 33.6511 14.1121 33.7862 14.4246 33.8315C14.6524 33.8643 14.889 33.8905 15.1006 33.9732C16.4491 34.4989 17.2087 35.8586 16.9648 37.2824C16.8163 38.1497 16.2458 38.6175 15.412 38.5096C15.1541 38.4762 14.9024 38.3513 14.6624 38.2374C14.4263 38.1252 14.2092 37.9739 13.9519 37.8204C13.9519 38.7542 13.9703 39.6372 13.9419 40.5185C13.9318 40.8372 14.0468 40.9978 14.3035 41.1514C15.9121 42.1131 17.5135 43.0875 19.1158 44.0594C20.6066 44.9636 22.0963 45.87 23.6245 46.7992ZM3.42427 12.3955C3.41814 12.4775 3.41311 12.5144 3.41311 12.5512C3.41311 15.9184 3.4159 19.2856 3.41088 22.6524C3.41088 22.8376 3.50353 22.9119 3.63916 22.9901C4.72419 23.6175 5.8053 24.2516 6.89088 24.8772C7.24977 25.0836 7.5294 25.3722 7.55898 25.7802C7.58185 26.1012 7.49814 26.4389 7.41385 26.7558C7.16995 27.6729 7.74148 28.8304 8.6239 29.1615C9.28585 29.4097 9.65535 29.1603 9.6598 28.4576C9.66204 28.1417 9.63693 27.8247 9.65422 27.5094C9.67543 27.1219 10.0366 26.8753 10.3759 27.0025C10.5132 27.0544 10.6427 27.132 10.7683 27.2102C11.4537 27.6377 12.1363 28.0692 12.8211 28.4978C12.8881 28.5396 12.9612 28.5716 13.0633 28.6245C13.0633 27.7761 13.0645 26.9685 13.0628 26.1603C13.0622 25.8344 13.0215 25.7975 12.6894 25.7858C11.9298 25.7595 11.2678 25.5022 10.7727 24.9117C10.0488 24.0489 9.84622 23.0504 10.0952 21.9642C10.266 21.2169 10.7376 20.8719 11.4905 20.8714C11.898 20.8714 12.249 21.0237 12.5889 21.223C12.7346 21.3084 12.8803 21.3933 13.0555 21.4959C13.0555 20.3545 13.0421 19.2667 13.0639 18.18C13.07 17.8741 12.9651 17.723 12.705 17.579C10.4652 16.3382 8.23377 15.0824 5.99953 13.8316C5.15227 13.3572 4.30335 12.885 3.42372 12.3938L3.42427 12.3955ZM35.0552 28.7373C35.2639 28.6072 35.4224 28.5129 35.5765 28.4124C36.2216 27.9921 36.8641 27.5668 37.511 27.1494C37.9999 26.8339 38.4833 27.0852 38.5055 27.6661C38.5117 27.823 38.4782 27.981 38.4811 28.1383C38.4856 28.3962 38.4811 28.658 38.5256 28.9103C38.5676 29.148 38.7496 29.2669 38.9956 29.2563C39.3623 29.2407 39.6866 29.1073 39.9473 28.8516C40.5941 28.2171 40.8616 27.4831 40.5629 26.5789C40.3012 25.7857 40.5272 25.2667 41.2444 24.8487C42.3188 24.2218 43.3865 23.5845 44.462 22.9605C44.6122 22.8735 44.6557 22.7747 44.6557 22.6067C44.6491 19.3332 44.6485 16.0602 44.6462 12.7867C44.6462 12.6433 44.6462 12.4993 44.6462 12.319C44.5418 12.3759 44.4782 12.4089 44.4157 12.4446C42.556 13.5095 40.6963 14.5739 38.8376 15.6405C37.655 16.3193 36.4751 17.0036 35.2907 17.6789C35.1215 17.7755 35.0468 17.8826 35.0491 18.0908C35.0624 19.1322 35.0546 20.1737 35.0557 21.2153C35.0557 21.2934 35.0624 21.3715 35.0669 21.4663C35.351 21.3055 35.5955 21.1293 35.8667 21.0204C36.791 20.6493 37.6534 20.9121 37.8977 21.9648C37.9703 22.2768 38.0099 22.6044 38.0077 22.9248C37.9994 24.3279 37.0813 25.7993 35.3822 25.7931C35.1935 25.7925 35.0557 25.879 35.0552 26.0916C35.053 26.9551 35.0552 27.8191 35.0552 28.7373ZM21.0626 9.6751C22.0087 10.1624 22.9213 10.6362 23.8399 11.0984C23.9135 11.1352 24.0397 11.1224 24.1184 11.0844C24.4187 10.9393 24.7084 10.7718 25.0042 10.6167C25.6181 10.2946 26.2333 9.97482 26.87 9.64274C26.8031 9.5886 26.7656 9.54729 26.7188 9.52161C25.7605 8.99697 25.6885 7.78637 26.6675 7.09761C27.5114 6.50376 28.4753 6.33297 29.4191 6.71529C30.1336 7.00497 30.7184 6.97985 31.3168 6.54003C31.3463 6.51827 31.382 6.50487 31.415 6.48813C31.9558 6.20739 32.4967 5.92721 33.0665 5.63082C32.5859 5.38134 32.1422 5.15139 31.6996 4.92087C29.3711 3.70971 27.0376 2.50748 24.7174 1.28069C24.1871 1.0005 23.7037 0.976502 23.1986 1.29353C23.0815 1.3672 22.9541 1.4258 22.8314 1.49055C20.4938 2.72348 18.1558 3.95697 15.8183 5.18989C15.4706 5.37297 15.1235 5.55716 14.7355 5.762C15.5582 6.17334 16.3301 6.55342 17.0954 6.94636C17.2778 7.04013 17.4308 7.04739 17.6173 6.95473C18.2339 6.64831 18.8854 6.48031 19.5796 6.54339C20.2846 6.60702 20.9504 6.79287 21.5018 7.26282C22.1605 7.82376 22.156 8.80329 21.4975 9.36143C21.3718 9.46803 21.2302 9.5551 21.0626 9.6751Z" fill="white"/>
</mask>
<g mask="url(#mask0_774_344)">
<path d="M45.4901 23.133C45.4901 26.7139 45.4846 30.295 45.4946 33.876C45.4969 34.6245 45.2011 35.1771 44.5715 35.5689C41.7656 37.3154 38.9656 39.0707 36.1564 40.811C32.8181 42.8789 29.4733 44.9361 26.1299 46.9962C25.6874 47.2686 25.238 47.5304 24.7943 47.8005C24.3412 48.0762 23.9119 48.0399 23.462 47.7664C20.1802 45.7683 16.8899 43.7847 13.6086 41.7859C10.2637 39.7488 6.92772 37.6971 3.58335 35.6582C2.85999 35.2173 2.51172 34.5938 2.51227 33.7472C2.51674 26.6598 2.51785 19.572 2.51172 12.4848C2.51116 11.5806 2.85888 10.9583 3.69162 10.5252C7.54279 8.51976 11.3755 6.47864 15.2134 4.44757C17.8294 3.06339 20.4419 1.6725 23.0575 0.287757C23.6495 -0.0259174 24.2407 -0.0186614 24.8395 0.294455C27.2312 1.54692 29.6278 2.79045 32.0206 4.04068C36.1564 6.20181 40.2895 8.36794 44.4257 10.5268C45.1295 10.8941 45.484 11.4667 45.4852 12.2509C45.4891 15.8783 45.4868 19.5056 45.4868 23.133H45.4901ZM33.7732 17.4538C33.6029 17.3613 33.4985 17.3037 33.3931 17.2474C32.5346 16.7875 31.6768 16.3271 30.8173 15.8694C30.58 15.7433 30.4103 15.5757 30.4187 15.2854C30.4265 15.0036 30.6415 14.9127 30.8495 14.7983C31.1471 14.6347 31.453 14.4706 31.7119 14.2552C31.9492 14.0576 31.9375 13.7897 31.7203 13.572C31.5857 13.4375 31.4239 13.3052 31.2493 13.2411C30.9305 13.1238 30.5962 13.0027 30.263 12.9826C29.4805 12.9358 28.7371 13.0842 28.1951 13.7205C27.8323 14.1464 27.6191 14.2083 27.1168 13.9432C26.1412 13.4275 25.1683 12.9062 24.1882 12.3983C24.0934 12.3492 23.9332 12.3358 23.8427 12.3821C22.871 12.8861 21.8975 13.3873 20.9471 13.9292C20.543 14.1592 20.1455 14.1039 19.8464 13.754C19.1186 12.9023 17.605 12.6701 16.5445 13.4163C16.1387 13.7021 16.1309 14.0548 16.5334 14.3428C16.7939 14.5292 17.0971 14.6598 17.389 14.7988C17.6033 14.9004 17.7824 15.0232 17.7997 15.2776C17.8175 15.5455 17.6518 15.7035 17.4347 15.8208C17.0345 16.0368 16.6343 16.2522 16.2353 16.4699C15.6179 16.8065 15.0017 17.1453 14.3616 17.4957C14.4302 17.5427 14.4715 17.5755 14.5173 17.6013C17.6696 19.3968 20.8216 21.1929 23.9777 22.9817C24.052 23.0241 24.1937 23.0219 24.2686 22.9784C26.8534 21.4797 29.4335 19.9734 32.015 18.4692C32.5816 18.1388 33.1504 17.8138 33.7732 17.4538ZM24.5053 35.1648C24.6995 35.047 24.8407 34.9616 24.9818 34.8756C25.8052 34.3722 26.629 33.8688 27.4516 33.3636C27.5974 33.2743 27.7396 33.1923 27.6296 32.9707C27.3395 32.3869 27.3295 31.763 27.4712 31.1484C27.7235 30.0551 28.3346 29.244 29.4448 28.9041C30.3796 28.6177 31.1459 29.085 31.3252 30.045C31.3832 30.357 31.3615 30.6846 31.3771 31.0312C31.4345 31.0021 31.4753 30.9859 31.5116 30.9631C32.3242 30.4596 33.1336 29.9506 33.9517 29.4561C34.1197 29.3545 34.166 29.2374 34.1644 29.051C34.156 28.0374 34.1594 27.0237 34.1621 26.0101C34.1621 25.8907 34.1689 25.7663 34.2029 25.6535C34.358 25.1429 34.6784 24.9207 35.3057 24.9078C35.7853 24.8983 36.1976 24.7476 36.5287 24.3988C37.0952 23.8015 37.2208 23.0833 37.0673 22.3047C36.959 21.7537 36.6559 21.607 36.1558 21.8698C35.812 22.0507 35.4934 22.2785 35.1623 22.4834C34.9558 22.6112 34.7504 22.7513 34.4948 22.595C34.2487 22.4442 34.1576 22.2226 34.1588 21.9391C34.1638 20.8138 34.1611 19.6887 34.1611 18.5635C34.1611 18.4741 34.1611 18.3843 34.1611 18.2655C34.0991 18.2939 34.0661 18.3051 34.0366 18.3224C30.9295 20.1408 27.8234 21.9609 24.7135 23.7749C24.5572 23.8658 24.4991 23.9617 24.4991 24.1459C24.5057 27.5494 24.5047 30.9531 24.5053 34.3572C24.5053 34.6073 24.5053 34.8567 24.5053 35.1648ZM23.6323 35.0576C23.6323 34.8875 23.6323 34.7875 23.6323 34.6875C23.6306 31.2288 23.6228 27.7706 23.6368 24.3117C23.6378 23.9668 23.5318 23.7859 23.2382 23.6185C20.6095 22.1244 17.9896 20.6141 15.3674 19.1094C14.9113 18.8475 14.4548 18.588 13.9513 18.3C13.9513 18.4513 13.9513 18.5494 13.9513 18.6477C13.9513 19.6981 13.9536 20.7492 13.9513 21.7995C13.9513 21.9285 13.9458 22.0619 13.9128 22.1853C13.8034 22.5944 13.3837 22.764 13.0204 22.5547C12.5951 22.3096 12.1843 22.0346 11.7417 21.827C11.3024 21.621 10.9871 21.8202 10.9396 22.298C10.9134 22.5632 10.9179 22.835 10.9424 23.1006C11.0323 24.0707 11.7523 24.9447 12.8959 24.9051C13.5445 24.8827 13.953 25.3215 13.9536 25.9673C13.9536 26.9993 13.9575 28.0312 13.9491 29.0632C13.948 29.2335 14.0005 29.3306 14.1467 29.4176C14.7294 29.7626 15.3043 30.1209 15.8825 30.4736C16.1644 30.6455 16.4468 30.8169 16.7504 31.0015C16.7504 30.7375 16.7455 30.5104 16.7515 30.2833C16.7761 29.3635 17.4794 28.6994 18.3094 28.8221C19.2928 28.9683 19.991 29.5248 20.4475 30.3865C20.8706 31.1853 20.8907 32.0218 20.5894 32.8647C20.5045 33.1014 20.5424 33.2426 20.774 33.3564C21.0146 33.4748 21.239 33.6259 21.47 33.7638C22.1689 34.1808 22.8676 34.5989 23.6339 35.0565L23.6323 35.0576ZM44.2505 11.4997C43.6171 11.1614 43.0544 10.8578 42.4891 10.5598C39.7336 9.10971 36.9775 7.66078 34.2179 6.21799C34.1387 6.17668 34.0009 6.17668 33.9211 6.21799C32.9471 6.71752 31.9709 7.21371 31.0136 7.74339C30.5867 7.98003 30.2083 8.03976 29.7635 7.79195C29.1574 7.45482 28.4926 7.38226 27.8212 7.55362C27.5761 7.61613 27.3322 7.73669 27.1256 7.88403C26.8165 8.10506 26.8009 8.42934 27.0805 8.69C27.268 8.86469 27.5014 8.98915 27.7117 9.14041C27.8239 9.22078 27.9556 9.29111 28.0333 9.39827C28.2296 9.66953 28.1281 9.97036 27.7642 10.1785C27.3299 10.4275 26.8835 10.6546 26.4415 10.8902C25.9301 11.1631 25.4177 11.4355 24.8741 11.7252C24.9914 11.7938 25.0739 11.8479 25.1615 11.8932C25.8029 12.2275 26.4554 12.5428 27.0827 12.9012C27.3562 13.0574 27.5309 13.0424 27.7843 12.8515C29.0015 11.9328 30.7034 11.8518 31.9502 12.602C33.0604 13.2695 33.0431 14.6883 31.9184 15.2386C31.8733 15.261 31.837 15.3 31.7767 15.3463C31.862 15.396 31.9229 15.4346 31.9865 15.468C32.6083 15.8001 33.2356 16.1211 33.8507 16.4649C34.7258 16.9543 34.7141 16.9482 35.5933 16.4432C38.0702 15.0188 40.5539 13.6055 43.0349 12.189C43.4189 11.9696 43.804 11.7525 44.2505 11.4997ZM10.5456 28.1556C10.5456 28.3666 10.5523 28.5146 10.5445 28.6619C10.4903 29.7336 9.64306 30.3492 8.60158 30.0986C7.33348 29.7938 6.04027 28.0848 6.6118 26.3623C6.76195 25.9102 6.71898 25.8087 6.31543 25.5716C5.4358 25.0541 4.55619 24.5373 3.67543 24.0214C3.6012 23.9779 3.52195 23.9439 3.41479 23.891C3.41479 24.0249 3.41479 24.1075 3.41479 24.1906C3.41479 27.3151 3.43041 30.4401 3.40306 33.564C3.39693 34.2477 3.65869 34.6653 4.2252 35.0062C7.11916 36.7494 9.99972 38.5142 12.8859 40.2701C12.9294 40.2963 12.983 40.3063 13.0561 40.3326C13.0561 40.1863 13.0561 40.067 13.0561 39.9476C13.0561 39.1014 13.05 38.2552 13.0572 37.4091C13.0622 36.8565 13.5344 36.5718 14.0222 36.8292C14.4319 37.0452 14.8215 37.3002 15.2335 37.5112C15.6944 37.7473 16.0093 37.5642 16.0739 37.0501C16.2308 35.8077 15.3875 34.7636 14.1478 34.6647C13.4312 34.6077 13.0589 34.2115 13.0561 33.4897C13.0527 32.3551 13.0455 31.2204 13.0611 30.0863C13.065 29.8034 12.9886 29.6348 12.7335 29.4924C12.2072 29.1989 11.7026 28.8656 11.1891 28.5492C10.9938 28.4286 10.7984 28.3096 10.5456 28.1556ZM34.1498 30.3659C34.0936 30.3927 34.0612 30.4038 34.0327 30.4222C33.2423 30.9268 32.4493 31.4276 31.6639 31.9394C31.3871 32.1195 31.1024 32.2089 30.8044 32.037C30.5035 31.8634 30.3896 31.5781 30.421 31.2315C30.4466 30.9453 30.4807 30.6573 30.4739 30.3704C30.4612 29.8491 30.1223 29.6163 29.6273 29.7827C28.9307 30.0159 28.5416 30.5378 28.3576 31.2198C28.213 31.7562 28.2883 32.2797 28.487 32.7995C28.6913 33.333 28.5662 33.6706 28.0975 33.9994C28.0064 34.0635 27.9104 34.1205 27.815 34.1779C26.7886 34.7947 25.7638 35.4142 24.734 36.0243C24.5744 36.1192 24.4985 36.2191 24.4991 36.4167C24.5063 39.8487 24.5053 43.2807 24.5075 46.7127C24.5075 46.7707 24.5242 46.8288 24.5365 46.908C24.6253 46.8589 24.6911 46.8265 24.7531 46.788C27.8138 44.8893 30.8731 42.9876 33.9383 41.0955C34.1158 40.9861 34.1672 40.8723 34.165 40.6753C34.1549 39.8101 34.1611 38.9455 34.1599 38.0805C34.1599 38.0023 34.1504 37.9242 34.1432 37.8054C34.0019 37.8963 33.8981 37.9716 33.7865 38.0325C33.518 38.1781 33.2575 38.3478 32.9734 38.4528C32.2505 38.7195 31.5736 38.3925 31.3726 37.6501C31.2727 37.2823 31.2409 36.8794 31.2649 36.4981C31.3457 35.2099 32.4017 33.9603 33.7229 33.8308C34.0372 33.8001 34.1615 33.6561 34.1615 33.3386C34.1627 32.4176 34.1615 31.4967 34.1605 30.5763C34.1605 30.5149 34.1543 30.4535 34.1498 30.3659ZM23.0741 11.7547C22.7789 11.5996 22.5256 11.4667 22.2727 11.3333C21.5582 10.9577 20.8421 10.586 20.1305 10.2059C19.7828 10.02 19.6522 9.75045 19.804 9.48924C19.8815 9.35529 20.029 9.25315 20.1623 9.16161C20.3828 9.00924 20.6368 8.90097 20.8405 8.73073C21.148 8.47399 21.1525 8.14021 20.8294 7.90692C20.5966 7.73892 20.3096 7.61558 20.029 7.54916C19.2805 7.37279 18.5543 7.48218 17.8712 7.83995C17.5346 8.01632 17.222 8.02469 16.8704 7.83995C15.902 7.33037 14.9152 6.85539 13.943 6.35363C13.8057 6.28274 13.7152 6.29055 13.593 6.36032C13.3033 6.52608 13.0081 6.68237 12.7128 6.83808C9.85906 8.3445 7.0053 9.84924 4.15209 11.3568C4.04437 11.4137 3.95059 11.4969 3.82446 11.5856C3.94501 11.6582 4.02259 11.7078 4.10353 11.7525C5.82483 12.7036 7.5478 13.6524 9.26856 14.6052C10.6321 15.3597 11.9928 16.1199 13.3586 16.8706C13.4384 16.9141 13.5763 16.9349 13.6488 16.8953C14.5123 16.4253 15.3685 15.9425 16.2263 15.4619C16.2922 15.4251 16.3531 15.3804 16.3625 15.3743C16.0895 15.131 15.7625 14.935 15.5711 14.6487C15.1117 13.9605 15.359 13.1384 16.1158 12.6344C17.2684 11.8664 19.0394 11.9339 20.14 12.8169C20.4241 13.0446 20.6356 13.0915 20.9656 12.8939C21.6386 12.4915 22.3453 12.1443 23.0741 11.7547ZM37.5422 28.2204C36.7775 28.7033 36.0286 29.1814 35.2729 29.6475C35.1127 29.7463 35.0485 29.8536 35.0507 30.0466C35.0618 31.1902 35.0608 32.3344 35.0575 33.4786C35.0552 34.2009 34.7014 34.5915 33.9746 34.6676C32.7529 34.7954 32.0206 35.94 32.159 37.0842C32.2216 37.5988 32.5045 37.7261 32.9582 37.4694C33.2975 37.2774 33.6257 37.0664 33.964 36.8727C34.5244 36.5517 35.0485 36.8549 35.0518 37.5C35.0557 38.1698 35.054 38.8395 35.0546 39.5088C35.0546 39.7923 35.0546 40.0758 35.0546 40.4095C35.2031 40.3215 35.3053 40.2629 35.4056 40.2009C36.5281 39.5094 37.6528 38.8217 38.7718 38.1246C40.5211 37.0346 42.2636 35.9334 44.015 34.846C44.461 34.5693 44.6579 34.2003 44.6563 33.6713C44.6452 30.4904 44.6513 27.3095 44.6507 24.1293C44.6507 24.0528 44.639 23.9763 44.6306 23.8758C43.6204 24.4836 42.6419 25.0692 41.6675 25.6614C41.3683 25.8433 41.308 26.0085 41.4236 26.3389C41.9861 27.9525 40.8928 29.7285 39.3902 30.1131C38.5039 30.3396 37.7884 29.8998 37.6132 28.9991C37.5656 28.7552 37.5667 28.5023 37.5422 28.2204ZM23.6245 46.7992C23.6306 46.6915 23.6368 46.6284 23.6368 46.5654C23.6335 43.1535 23.6284 39.741 23.629 36.3291C23.629 36.1712 23.5832 36.0846 23.4425 36.0009C22.3418 35.3474 21.2435 34.6881 20.1529 34.0177C19.5802 33.6655 19.4663 33.2961 19.7075 32.6737C19.8671 32.2624 19.9865 31.8512 19.8721 31.403C19.6801 30.6489 19.2911 30.0583 18.5248 29.7927C17.989 29.6068 17.6452 29.8485 17.6401 30.415C17.6378 30.6918 17.6764 30.9697 17.7049 31.246C17.7377 31.5654 17.6702 31.8472 17.3816 32.0196C17.1071 32.1837 16.8308 32.1296 16.5668 31.9644C15.781 31.4711 14.9934 30.9804 14.2059 30.4893C14.1333 30.444 14.058 30.4034 13.9525 30.3431C13.9525 31.3829 13.9486 32.3679 13.9547 33.3531C13.9564 33.6511 14.1121 33.7862 14.4246 33.8315C14.6524 33.8643 14.889 33.8905 15.1006 33.9732C16.4491 34.4989 17.2087 35.8586 16.9648 37.2824C16.8163 38.1497 16.2458 38.6175 15.412 38.5096C15.1541 38.4762 14.9024 38.3513 14.6624 38.2374C14.4263 38.1252 14.2092 37.9739 13.9519 37.8204C13.9519 38.7542 13.9703 39.6372 13.9419 40.5185C13.9318 40.8372 14.0468 40.9978 14.3035 41.1514C15.9121 42.1131 17.5135 43.0875 19.1158 44.0594C20.6066 44.9636 22.0963 45.87 23.6245 46.7992ZM3.42427 12.3955C3.41814 12.4775 3.41311 12.5144 3.41311 12.5512C3.41311 15.9184 3.4159 19.2856 3.41088 22.6524C3.41088 22.8376 3.50353 22.9119 3.63916 22.9901C4.72419 23.6175 5.8053 24.2516 6.89088 24.8772C7.24977 25.0836 7.5294 25.3722 7.55898 25.7802C7.58185 26.1012 7.49814 26.4389 7.41385 26.7558C7.16995 27.6729 7.74148 28.8304 8.6239 29.1615C9.28585 29.4097 9.65535 29.1603 9.6598 28.4576C9.66204 28.1417 9.63693 27.8247 9.65422 27.5094C9.67543 27.1219 10.0366 26.8753 10.3759 27.0025C10.5132 27.0544 10.6427 27.132 10.7683 27.2102C11.4537 27.6377 12.1363 28.0692 12.8211 28.4978C12.8881 28.5396 12.9612 28.5716 13.0633 28.6245C13.0633 27.7761 13.0645 26.9685 13.0628 26.1603C13.0622 25.8344 13.0215 25.7975 12.6894 25.7858C11.9298 25.7595 11.2678 25.5022 10.7727 24.9117C10.0488 24.0489 9.84622 23.0504 10.0952 21.9642C10.266 21.2169 10.7376 20.8719 11.4905 20.8714C11.898 20.8714 12.249 21.0237 12.5889 21.223C12.7346 21.3084 12.8803 21.3933 13.0555 21.4959C13.0555 20.3545 13.0421 19.2667 13.0639 18.18C13.07 17.8741 12.9651 17.723 12.705 17.579C10.4652 16.3382 8.23377 15.0824 5.99953 13.8316C5.15227 13.3572 4.30335 12.885 3.42372 12.3938L3.42427 12.3955ZM35.0552 28.7373C35.2639 28.6072 35.4224 28.5129 35.5765 28.4124C36.2216 27.9921 36.8641 27.5668 37.511 27.1494C37.9999 26.8339 38.4833 27.0852 38.5055 27.6661C38.5117 27.823 38.4782 27.981 38.4811 28.1383C38.4856 28.3962 38.4811 28.658 38.5256 28.9103C38.5676 29.148 38.7496 29.2669 38.9956 29.2563C39.3623 29.2407 39.6866 29.1073 39.9473 28.8516C40.5941 28.2171 40.8616 27.4831 40.5629 26.5789C40.3012 25.7857 40.5272 25.2667 41.2444 24.8487C42.3188 24.2218 43.3865 23.5845 44.462 22.9605C44.6122 22.8735 44.6557 22.7747 44.6557 22.6067C44.6491 19.3332 44.6485 16.0602 44.6462 12.7867C44.6462 12.6433 44.6462 12.4993 44.6462 12.319C44.5418 12.3759 44.4782 12.4089 44.4157 12.4446C42.556 13.5095 40.6963 14.5739 38.8376 15.6405C37.655 16.3193 36.4751 17.0036 35.2907 17.6789C35.1215 17.7755 35.0468 17.8826 35.0491 18.0908C35.0624 19.1322 35.0546 20.1737 35.0557 21.2153C35.0557 21.2934 35.0624 21.3715 35.0669 21.4663C35.351 21.3055 35.5955 21.1293 35.8667 21.0204C36.791 20.6493 37.6534 20.9121 37.8977 21.9648C37.9703 22.2768 38.0099 22.6044 38.0077 22.9248C37.9994 24.3279 37.0813 25.7993 35.3822 25.7931C35.1935 25.7925 35.0557 25.879 35.0552 26.0916C35.053 26.9551 35.0552 27.8191 35.0552 28.7373ZM21.0626 9.6751C22.0087 10.1624 22.9213 10.6362 23.8399 11.0984C23.9135 11.1352 24.0397 11.1224 24.1184 11.0844C24.4187 10.9393 24.7084 10.7718 25.0042 10.6167C25.6181 10.2946 26.2333 9.97482 26.87 9.64274C26.8031 9.5886 26.7656 9.54729 26.7188 9.52161C25.7605 8.99697 25.6885 7.78637 26.6675 7.09761C27.5114 6.50376 28.4753 6.33297 29.4191 6.71529C30.1336 7.00497 30.7184 6.97985 31.3168 6.54003C31.3463 6.51827 31.382 6.50487 31.415 6.48813C31.9558 6.20739 32.4967 5.92721 33.0665 5.63082C32.5859 5.38134 32.1422 5.15139 31.6996 4.92087C29.3711 3.70971 27.0376 2.50748 24.7174 1.28069C24.1871 1.0005 23.7037 0.976502 23.1986 1.29353C23.0815 1.3672 22.9541 1.4258 22.8314 1.49055C20.4938 2.72348 18.1558 3.95697 15.8183 5.18989C15.4706 5.37297 15.1235 5.55716 14.7355 5.762C15.5582 6.17334 16.3301 6.55342 17.0954 6.94636C17.2778 7.04013 17.4308 7.04739 17.6173 6.95473C18.2339 6.64831 18.8854 6.48031 19.5796 6.54339C20.2846 6.60702 20.9504 6.79287 21.5018 7.26282C22.1605 7.82376 22.156 8.80329 21.4975 9.36143C21.3718 9.46803 21.2302 9.5551 21.0626 9.6751Z" fill="#171717" stroke="#171717" stroke-width="2"/>
</g>
<path d="M33.7732 17.4539C33.1496 17.8133 32.5804 18.1392 32.0138 18.4697C29.4325 19.9739 26.8522 21.4802 24.2675 22.9788C24.1927 23.0219 24.0515 23.0241 23.9767 22.9821C20.8204 21.1934 17.6686 19.3973 14.5162 17.6018C14.4704 17.5761 14.4291 17.5431 14.3605 17.4962C15.0007 17.1458 15.6169 16.8069 16.2341 16.4703C16.6333 16.2527 17.0335 16.0373 17.4337 15.8213C17.6507 15.7041 17.8171 15.5462 17.7986 15.2781C17.7814 15.0231 17.6021 14.9009 17.3878 14.7993C17.0959 14.6609 16.7929 14.5303 16.5322 14.3433C16.1297 14.0553 16.1377 13.702 16.5434 13.4168C17.6038 12.6711 19.1176 12.9033 19.8454 13.7544C20.1445 14.1044 20.5418 14.1597 20.9459 13.9297C21.8965 13.3878 22.8704 12.8865 23.8417 12.3825C23.9315 12.3357 24.0922 12.3496 24.1871 12.3987C25.1672 12.9061 26.1395 13.4279 27.1156 13.9437C27.6175 14.2088 27.8312 14.1468 28.1939 13.721C28.7359 13.0852 29.4794 12.9368 30.2618 12.9831C30.5956 13.0032 30.9295 13.1249 31.2481 13.2415C31.4228 13.3057 31.5847 13.438 31.7192 13.5725C31.9369 13.7902 31.9486 14.0581 31.7108 14.2557C31.4518 14.4711 31.1465 14.6352 30.8485 14.7987C30.6403 14.9132 30.4255 15.0041 30.4177 15.2861C30.4093 15.5762 30.5795 15.7437 30.8161 15.8699C31.6757 16.3275 32.5336 16.788 33.3919 17.2479C33.4975 17.3042 33.6029 17.3613 33.7732 17.4539Z" fill="white"/>
<path d="M24.5052 35.1646C24.5052 34.8561 24.5052 34.6061 24.5052 34.3565C24.5052 30.953 24.5058 27.5495 24.499 24.1454C24.499 23.9612 24.5571 23.8651 24.7134 23.7741C27.8227 21.9601 30.9294 20.1401 34.0365 18.3218C34.066 18.3044 34.099 18.2927 34.161 18.2648C34.161 18.3842 34.161 18.4736 34.161 18.5628C34.161 19.6881 34.1638 20.8133 34.1587 21.9384C34.1577 22.2215 34.2481 22.4436 34.4947 22.5942C34.7503 22.7505 34.9558 22.6104 35.1622 22.4826C35.4933 22.2779 35.812 22.05 36.1558 21.8693C36.6564 21.6063 36.9589 21.7532 37.0672 22.3041C37.2207 23.0832 37.0951 23.801 36.5286 24.3981C36.1977 24.7476 35.7852 24.8977 35.3058 24.9072C34.6789 24.9201 34.3581 25.1421 34.2028 25.6529C34.1688 25.7657 34.1626 25.89 34.162 26.0096C34.1593 27.0231 34.156 28.0367 34.1643 29.0502C34.1661 29.2367 34.1197 29.3539 33.9517 29.4555C33.1335 29.9505 32.3241 30.459 31.5115 30.9624C31.4746 30.9853 31.4344 31.0016 31.377 31.0305C31.3608 30.6834 31.3831 30.3562 31.3251 30.0442C31.1464 29.0842 30.3796 28.6171 29.4447 28.9035C28.3345 29.2434 27.7234 30.0549 27.4711 31.1478C27.3294 31.7622 27.34 32.3857 27.6297 32.97C27.7396 33.1917 27.5973 33.2738 27.4516 33.363C26.6289 33.8676 25.8051 34.371 24.9819 34.875C24.8412 34.9609 24.6994 35.0469 24.5052 35.1646Z" fill="white"/>
<path d="M23.6322 35.0576C22.8659 34.5998 22.1672 34.1823 21.4683 33.7648C21.2373 33.627 21.0129 33.4752 20.7723 33.3575C20.5407 33.2436 20.5028 33.1023 20.5875 32.8656C20.889 32.0229 20.8689 31.1858 20.4458 30.3876C19.9893 29.5257 19.2911 28.9694 18.3075 28.8231C17.4776 28.6997 16.7744 29.3645 16.7498 30.2843C16.7436 30.5115 16.7487 30.7386 16.7487 31.0026C16.4456 30.8178 16.1633 30.6471 15.8808 30.4746C15.3026 30.1218 14.7277 29.7636 14.145 29.4186C13.9988 29.3321 13.9457 29.2344 13.9474 29.0642C13.9558 28.0322 13.9524 27.0001 13.9519 25.9681C13.9519 25.323 13.5428 24.8837 12.8942 24.906C11.7511 24.9458 11.0311 24.0717 10.9407 23.1017C10.9161 22.8359 10.9117 22.5641 10.9379 22.299C10.9854 21.8213 11.3001 21.6219 11.74 21.8279C12.1826 22.0356 12.5934 22.3107 13.0187 22.5557C13.382 22.7651 13.8017 22.5954 13.9111 22.1862C13.9441 22.0629 13.9496 21.9296 13.9496 21.8006C13.9519 20.7501 13.9502 19.6992 13.9496 18.6488C13.9496 18.5505 13.9496 18.4517 13.9496 18.3011C14.4531 18.5885 14.9096 18.8486 15.3656 19.1103C17.9883 20.6151 20.6082 22.1255 23.2365 23.6196C23.5307 23.7864 23.6367 23.9678 23.6351 24.3128C23.6211 27.771 23.6289 31.2297 23.6306 34.6886C23.6306 34.7885 23.6306 34.8878 23.6306 35.0586L23.6322 35.0576Z" fill="white"/>
<path d="M44.2504 11.4998C43.8039 11.7526 43.4182 11.9692 43.0342 12.1885C40.5528 13.6056 38.0695 15.0183 35.5926 16.4427C34.7134 16.9477 34.7253 16.9539 33.85 16.4645C33.235 16.1207 32.6076 15.799 31.9858 15.4675C31.9222 15.4335 31.8613 15.3956 31.776 15.3459C31.8363 15.2996 31.8726 15.2606 31.9177 15.2382C33.0424 14.6879 33.0597 13.2691 31.9495 12.6015C30.7021 11.852 29.001 11.9323 27.7836 12.851C27.5302 13.0425 27.3555 13.057 27.082 12.9007C26.4547 12.5424 25.8022 12.227 25.161 11.8927C25.0732 11.8469 24.9907 11.7933 24.8734 11.7247C25.4176 11.435 25.9294 11.1627 26.4408 10.8897C26.8822 10.6542 27.3292 10.4265 27.7635 10.1781C28.1274 9.96992 28.2285 9.66908 28.0326 9.39782C27.955 9.2901 27.8227 9.22032 27.7111 9.13995C27.5013 8.98926 27.2673 8.86479 27.0798 8.68953C26.8008 8.42889 26.8158 8.10461 27.1251 7.88358C27.3315 7.73624 27.5754 7.61568 27.8205 7.55316C28.4925 7.38182 29.1567 7.45437 29.7628 7.7915C30.2076 8.03931 30.5866 7.97903 31.0131 7.74293C31.9702 7.21271 32.947 6.71708 33.9204 6.21753C34.0002 6.17679 34.138 6.17624 34.2172 6.21753C36.9768 7.66032 39.7329 9.10926 42.4884 10.5593C43.0543 10.8568 43.6176 11.1615 44.2504 11.4998Z" fill="white"/>
<path d="M10.5455 28.1557C10.7984 28.3098 10.9948 28.4287 11.1902 28.5487C11.7037 28.8652 12.2082 29.1984 12.7346 29.492C12.9896 29.6343 13.0661 29.8029 13.0622 30.0858C13.046 31.2199 13.0533 32.3547 13.0572 33.4894C13.0594 34.2111 13.4317 34.6074 14.1489 34.6643C15.3885 34.7631 16.2312 35.8074 16.0751 37.0497C16.0103 37.5638 15.6954 37.7469 15.2345 37.5108C14.8226 37.2998 14.433 37.0447 14.0233 36.8287C13.5355 36.5715 13.0633 36.8561 13.0583 37.4087C13.0505 38.2548 13.0566 39.1009 13.0572 39.9471C13.0572 40.0665 13.0572 40.1859 13.0572 40.3321C12.984 40.3059 12.9305 40.2958 12.8869 40.2696C10.0008 38.5137 7.12023 36.749 4.22628 35.0058C3.65976 34.6649 3.39856 34.2468 3.40414 33.5635C3.43149 30.4392 3.41586 27.3147 3.41586 24.1902C3.41586 24.1071 3.41586 24.0244 3.41586 23.8905C3.52302 23.9436 3.60228 23.9775 3.67651 24.0211C4.5567 24.5368 5.43688 25.0536 6.31651 25.5711C6.72004 25.8088 6.76246 25.9098 6.61288 26.3619C6.04135 28.0843 7.33456 29.7934 8.60265 30.0981C9.64414 30.3487 10.4908 29.7326 10.5455 28.6615C10.5528 28.5141 10.5455 28.366 10.5455 28.1557Z" fill="white"/>
<path d="M34.1497 30.3659C34.1542 30.4535 34.1598 30.5148 34.1598 30.5763C34.1608 31.4971 34.162 32.4181 34.161 33.3384C34.161 33.6555 34.0365 33.7995 33.7222 33.8307C32.4016 33.9597 31.3456 35.21 31.2642 36.4982C31.2402 36.8793 31.272 37.2822 31.3719 37.6502C31.5729 38.3924 32.2498 38.7195 32.9727 38.4527C33.2568 38.3478 33.5173 38.1782 33.7858 38.0324C33.8974 37.9716 34.0012 37.8963 34.1425 37.8053C34.1503 37.9242 34.1592 38.0024 34.1592 38.0804C34.1604 38.9456 34.1542 39.8106 34.1643 40.6752C34.1665 40.8723 34.1146 40.9862 33.9376 41.0955C30.8724 42.9876 27.8131 44.8892 24.7524 46.788C24.6904 46.8264 24.625 46.8588 24.5358 46.908C24.5235 46.8293 24.5068 46.7706 24.5068 46.7126C24.5046 43.2806 24.5056 39.8486 24.4984 36.4166C24.4984 36.219 24.5731 36.1191 24.7333 36.0243C25.7631 35.4137 26.7885 34.7946 27.8143 34.1779C27.9097 34.1203 28.0057 34.0635 28.0968 33.9993C28.5655 33.6705 28.69 33.3329 28.4863 32.7993C28.2876 32.2797 28.2123 31.7562 28.3569 31.2198C28.5409 30.5378 28.93 30.0159 29.6266 29.7825C30.1216 29.6167 30.4605 29.8489 30.4732 30.3702C30.48 30.6565 30.4459 30.9445 30.4203 31.2315C30.3889 31.5786 30.5029 31.8633 30.8037 32.0369C31.1017 32.2088 31.3864 32.1195 31.6632 31.9392C32.449 31.4274 33.2416 30.9267 34.032 30.4223C34.0605 30.4043 34.0935 30.3926 34.1497 30.3659Z" fill="white"/>
<path d="M23.074 11.7543C22.3452 12.1439 21.6391 12.491 20.9659 12.8935C20.6356 13.091 20.4246 13.0441 20.1405 12.8164C19.0398 11.9335 17.2689 11.8659 16.1163 12.6339C15.3595 13.1385 15.1122 13.9601 15.5716 14.6483C15.763 14.9346 16.09 15.1305 16.363 15.3738C16.3536 15.38 16.2921 15.4247 16.2268 15.4614C15.369 15.942 14.5128 16.4248 13.6493 16.8948C13.5768 16.9344 13.4383 16.9137 13.3591 16.8702C11.9933 16.1195 10.6326 15.3593 9.26904 14.6047C7.5483 13.6525 5.82532 12.7031 4.10401 11.7521C4.02364 11.7074 3.94606 11.6577 3.82495 11.5852C3.95053 11.4964 4.04485 11.4133 4.15258 11.3563C7.00522 9.84825 9.85956 8.3435 12.7133 6.83765C13.0086 6.68192 13.3038 6.52565 13.5935 6.35988C13.7157 6.28955 13.8062 6.28173 13.9435 6.35317C14.9157 6.85549 15.9025 7.32991 16.8709 7.83949C17.2225 8.0248 17.5357 8.01588 17.8717 7.83949C18.5548 7.48173 19.2804 7.37234 20.0295 7.54871C20.3101 7.61457 20.5965 7.73848 20.8297 7.90648C21.153 8.13978 21.1485 8.47354 20.841 8.73028C20.6373 8.90052 20.3833 9.0088 20.1628 9.16117C20.0299 9.2527 19.8826 9.35485 19.8045 9.4888C19.6527 9.75001 19.7833 10.0196 20.131 10.2055C20.8426 10.5855 21.5587 10.9578 22.2732 11.3329C22.5259 11.4657 22.7788 11.5991 23.074 11.7543Z" fill="white"/>
<path d="M37.5422 28.2204C37.5668 28.5023 37.5668 28.7556 37.6142 28.9991C37.7895 29.8998 38.505 30.3396 39.3914 30.1131C40.8938 29.7291 41.9873 27.9525 41.4246 26.339C41.3096 26.0085 41.3694 25.8433 41.6685 25.6614C42.6431 25.0692 43.6215 24.4836 44.6316 23.8758C44.64 23.9763 44.6517 24.0528 44.6517 24.1293C44.6517 27.3101 44.6462 30.491 44.6574 33.6713C44.6591 34.2009 44.462 34.5698 44.016 34.8461C42.2646 35.9328 40.5221 37.034 38.7729 38.1246C37.6538 38.8217 36.5292 39.5094 35.4068 40.2009C35.3063 40.2629 35.2041 40.3215 35.0556 40.4095C35.0556 40.0758 35.0556 39.7923 35.0556 39.5088C35.0552 38.839 35.0568 38.1693 35.0529 37.5C35.0496 36.8543 34.5255 36.5513 33.9651 36.8727C33.6269 37.0664 33.2987 37.2774 32.9594 37.4694C32.5056 37.7261 32.222 37.5988 32.16 37.0842C32.0216 35.94 32.7539 34.7954 33.9756 34.6676C34.7024 34.5915 35.0562 34.2009 35.0585 33.4787C35.0618 32.3345 35.0624 31.1908 35.0517 30.0466C35.0501 29.8536 35.1137 29.7464 35.2739 29.6475C36.0296 29.181 36.7775 28.7027 37.5422 28.2204Z" fill="white"/>
<path d="M23.6244 46.7992C22.0962 45.87 20.6072 44.9629 19.1163 44.0587C17.5139 43.0864 15.9132 42.112 14.304 41.1508C14.0473 40.9974 13.9323 40.836 13.9424 40.518C13.9708 39.6366 13.9524 38.7537 13.9524 37.8199C14.2097 37.9734 14.4274 38.1246 14.6629 38.2368C14.9029 38.3506 15.1547 38.4762 15.4125 38.5092C16.2458 38.6169 16.8168 38.1492 16.9653 37.2819C17.2092 35.8581 16.4495 34.4983 15.1011 33.9726C14.8895 33.8899 14.6529 33.8643 14.4252 33.8308C14.1126 33.7857 13.9569 33.6505 13.9552 33.3525C13.9491 32.3674 13.953 31.3822 13.953 30.3424C14.0579 30.4033 14.1338 30.4435 14.2064 30.4887C14.9939 30.9799 15.7814 31.4704 16.5674 31.9639C16.8308 32.1297 17.1075 32.1832 17.3822 32.0191C17.6708 31.8466 17.7383 31.5648 17.7053 31.2456C17.6769 30.9693 17.6384 30.6913 17.6406 30.4144C17.6456 29.848 17.9894 29.6062 18.5253 29.7921C19.2915 30.0579 19.68 30.6483 19.8726 31.4023C19.9871 31.8505 19.8675 32.262 19.7079 32.6733C19.4669 33.295 19.5807 33.6651 20.1533 34.0173C21.2439 34.6881 22.3424 35.3467 23.4431 36.0003C23.5836 36.084 23.6294 36.1705 23.6294 36.3285C23.6294 39.7404 23.6339 43.1529 23.6373 46.5648C23.6373 46.6279 23.63 46.6915 23.6244 46.7992Z" fill="white"/>
<path d="M3.42422 12.3955C4.30385 12.8867 5.15277 13.3589 6.00003 13.8333C8.23427 15.084 10.4657 16.3404 12.7055 17.5806C12.9656 17.7246 13.0705 17.876 13.0644 18.1818C13.0426 19.2684 13.056 20.3562 13.056 21.4977C12.8802 21.395 12.7345 21.3101 12.5894 21.2247C12.2495 21.0255 11.8985 20.8731 11.491 20.8731C10.7381 20.8731 10.2665 21.2186 10.0957 21.966C9.84729 23.052 10.0493 24.0506 10.7732 24.9135C11.2683 25.5035 11.9303 25.7613 12.6899 25.7876C13.022 25.7993 13.0627 25.836 13.0633 26.162C13.065 26.9697 13.0639 27.7779 13.0639 28.6262C12.9617 28.5732 12.8886 28.5414 12.8216 28.4996C12.1368 28.0709 11.4542 27.6389 10.7688 27.212C10.6432 27.1338 10.5137 27.0557 10.3764 27.0042C10.0365 26.8764 9.67593 27.1238 9.65474 27.5111C9.63743 27.8259 9.66254 28.1429 9.66032 28.4594C9.65529 29.162 9.2858 29.4116 8.6244 29.1632C7.74198 28.8321 7.17045 27.6746 7.41436 26.7576C7.49864 26.4399 7.58292 26.1023 7.55948 25.782C7.5299 25.3734 7.25027 25.0854 6.89138 24.8789C5.80524 24.2532 4.72469 23.6192 3.63966 22.9919C3.50403 22.9131 3.41082 22.8395 3.41138 22.6541C3.4164 19.2869 3.41417 15.9197 3.41361 12.5529C3.41361 12.5161 3.41864 12.4792 3.42477 12.3972L3.42422 12.3955Z" fill="white"/>
<path d="M35.0551 28.7375C35.0551 27.8193 35.054 26.9557 35.0561 26.0923C35.0561 25.8796 35.1946 25.7927 35.3833 25.7937C37.0822 25.7999 38.0009 24.3287 38.0087 22.9254C38.0104 22.6052 37.9714 22.2774 37.8988 21.9654C37.6538 20.9123 36.7921 20.6499 35.8678 21.0212C35.5964 21.1299 35.3525 21.3057 35.068 21.4671C35.0635 21.3716 35.0567 21.294 35.0567 21.2159C35.0561 20.1744 35.0635 19.133 35.05 18.0914C35.0473 17.8833 35.1226 17.7761 35.2918 17.6795C36.476 17.0036 37.6561 16.3199 38.8387 15.6413C40.6973 14.5746 42.557 13.5102 44.4167 12.4453C44.4787 12.4096 44.5423 12.3766 44.6473 12.3197C44.6473 12.5005 44.6473 12.644 44.6473 12.7874C44.6489 16.061 44.6495 19.3338 44.6567 22.6074C44.6567 22.7754 44.6138 22.8735 44.4631 22.9613C43.3876 23.5853 42.3193 24.2232 41.2454 24.8494C40.5287 25.2673 40.3021 25.7859 40.564 26.5796C40.862 27.4838 40.5952 28.2172 39.9482 28.8523C39.6877 29.1079 39.3634 29.2415 38.9966 29.2571C38.7505 29.2676 38.5685 29.1488 38.5267 28.911C38.4826 28.6587 38.4871 28.3969 38.482 28.1391C38.4793 27.9816 38.5121 27.8236 38.5066 27.6669C38.4842 27.0864 38.0009 26.8347 37.5121 27.15C36.8651 27.5675 36.2227 27.9929 35.5775 28.4132C35.4235 28.5135 35.2639 28.6074 35.0551 28.7375Z" fill="white"/>
<path d="M21.0626 9.67491C21.23 9.55491 21.3719 9.46728 21.4979 9.36067C22.1565 8.80198 22.161 7.82244 21.5024 7.26207C20.9504 6.79212 20.2851 6.60681 19.5801 6.54263C18.8858 6.47957 18.2339 6.64812 17.6178 6.95399C17.4314 7.04663 17.279 7.03938 17.0958 6.9456C16.3307 6.55268 15.5582 6.17259 14.7361 5.76123C15.1239 5.55641 15.4712 5.37277 15.8189 5.18914C18.1563 3.95621 20.4944 2.72273 22.8318 1.48979C22.9547 1.42505 23.0819 1.36644 23.1992 1.29277C23.7042 0.975747 24.1877 0.999746 24.7178 1.27993C27.038 2.50673 29.3717 3.70896 31.7001 4.92012C32.1434 5.15063 32.5865 5.38002 33.0671 5.63007C32.4966 5.92589 31.9559 6.20663 31.4156 6.48738C31.3826 6.50468 31.3469 6.51751 31.3173 6.53928C30.719 6.97909 30.134 7.0042 29.4197 6.71454C28.4759 6.3322 27.5118 6.50299 26.6679 7.09686C25.6884 7.7856 25.761 8.9962 26.7194 9.52086C26.7662 9.54654 26.8041 9.58783 26.8706 9.64198C26.2338 9.97407 25.6187 10.2939 25.0047 10.6159C24.7089 10.7711 24.4193 10.9385 24.119 11.0837C24.0402 11.1216 23.9141 11.1344 23.8404 11.0976C22.9218 10.6349 22.0086 10.1622 21.0626 9.67491Z" fill="white"/>
</svg>
